<?xml version="1.0" encoding="utf-8"?><svg version="1.1" id="Layer_1" xmlns="http://www.w3.org/2000/svg" xmlns:xlink="http://www.w3.org/1999/xlink" x="0px" y="0px" viewBox="0 0 108.1 122.88" style="enable-background:new 0 0 108.1 122.88" xml:space="preserve"><style type="text/css"><![CDATA[
	.st0{fill-rule:evenodd;clip-rule:evenodd;}
]]></style><g><path class="st0" d="M17.61,47.71h52.57c4.88,0,8.86,3.99,8.86,8.86v38.52c0,4.87-3.99,8.86-8.86,8.86H53.94l11.79,18.92H54.75 l-12.86-17.29l-12.99,17.29H17.76l11.72-18.92H17.61c-4.87,0-8.86-3.99-8.86-8.86V56.57C8.75,51.7,12.73,47.71,17.61,47.71 L17.61,47.71z M17.83,9.22c4.92,0,9.38,2,12.61,5.22c3.23,3.23,5.22,7.69,5.22,12.61c0,4.92-2,9.38-5.22,12.61 c-3.23,3.23-7.69,5.22-12.61,5.22s-9.38-2-12.61-5.22C2,36.44,0,31.98,0,27.06c0-4.92,2-9.38,5.22-12.61S12.91,9.22,17.83,9.22 L17.83,9.22z M24.93,19.96c-1.82-1.82-4.33-2.94-7.1-2.94c-2.77,0-5.28,1.12-7.1,2.94c-1.82,1.82-2.94,4.33-2.94,7.1 c0,2.77,1.12,5.28,2.94,7.1s4.33,2.94,7.1,2.94c2.77,0,5.28-1.12,7.1-2.94s2.94-4.33,2.94-7.1C27.88,24.29,26.75,21.77,24.93,19.96 L24.93,19.96z M60.62,0c6.2,0,11.81,2.51,15.87,6.57c4.06,4.06,6.57,9.67,6.57,15.87c0,6.2-2.51,11.81-6.57,15.87 c-4.06,4.06-9.67,6.57-15.87,6.57s-11.81-2.51-15.87-6.57c-4.06-4.06-6.57-9.67-6.57-15.87c0-6.2,2.51-11.81,6.57-15.87 S54.42,0,60.62,0L60.62,0z M70.88,12.19c-2.62-2.62-6.25-4.25-10.26-4.25s-7.63,1.62-10.26,4.25c-2.62,2.62-4.25,6.25-4.25,10.26 s1.62,7.63,4.25,10.26c2.62,2.62,6.25,4.25,10.26,4.25s7.63-1.62,10.26-4.25s4.25-6.25,4.25-10.26 C75.13,18.44,73.5,14.81,70.88,12.19L70.88,12.19z M84.07,89.97V61.52l24.02-14.16v57.15L84.07,89.97L84.07,89.97z"/></g></svg>