<svg id="Layer_1" data-name="Layer 1" xmlns="http://www.w3.org/2000/svg" viewBox="0 0 122.88 112.9"><title>time-period</title><path d="M35.69,101.21a24.08,24.08,0,0,0-4.23-11.35c-2.27-3.17-5.22-5.33-8.32-5.33s-6.06,2.16-8.33,5.33a24.08,24.08,0,0,0-4.23,11.35Zm78.39-73.63a4.17,4.17,0,0,0-7.37,3.81,4.68,4.68,0,0,0,.37.7,44,44,0,0,1,3.6,6.74,4.17,4.17,0,0,0,7.94-2.29,4.32,4.32,0,0,0-.3-1,52.05,52.05,0,0,0-4.24-7.93ZM107.14,16.5a4.63,4.63,0,0,1-3.23,5.18L91.54,25.46a4.63,4.63,0,1,1-2.69-8.86L90,16.24A47,47,0,0,0,22.46,44.49H13.84A55.33,55.33,0,0,1,94.7,9.33l-1.16-3A4.64,4.64,0,1,1,102.22,3l4.62,12.09a4.81,4.81,0,0,1,.3,1.42ZM67.6,104.55a53.52,53.52,0,0,0,9.43-.87,4.17,4.17,0,0,1,1,8.25,61.44,61.44,0,0,1-7.38.94c-1.31.06-3,0-4.34,0a55.19,55.19,0,0,1-10.91-1.33V103a46.85,46.85,0,0,0,12.15,1.59Zm23.25-6a4.17,4.17,0,1,0,4.09,7.26,55.27,55.27,0,0,0,7.46-5.06,4.17,4.17,0,0,0-3.89-7.21,4.07,4.07,0,0,0-1.34.73,47.39,47.39,0,0,1-6.32,4.28Zm16.42-15.64a4.16,4.16,0,1,0,7.06,4.41,55.51,55.51,0,0,0,4.15-8,4.17,4.17,0,0,0-7.15-4.14,4.11,4.11,0,0,0-.54.93,46,46,0,0,1-3.52,6.79Zm7.13-21.62a4.17,4.17,0,0,0,8.16,1.46,3.91,3.91,0,0,0,.15-.83,56.09,56.09,0,0,0,0-9,4.16,4.16,0,1,0-8.3.69,47.78,47.78,0,0,1,0,7.66ZM59.12,35a4.29,4.29,0,0,1,8.57,0V61.09l17.84,7.85a4.28,4.28,0,1,1-3.44,7.83L61.91,67.9a4.29,4.29,0,0,1-2.79-4V35ZM12.59,70.51h21.1a20.92,20.92,0,0,0,2-7H10.56a20.7,20.7,0,0,0,2,7ZM2.47,105.83a2.09,2.09,0,1,1,0-4.1H5.55a28.67,28.67,0,0,1,5.13-14.44,19.38,19.38,0,0,1,6.1-5.67,18.41,18.41,0,0,1-6.17-5.21,24.83,24.83,0,0,1-5.07-14H2.61a2.09,2.09,0,1,1,0-4.1H43.93a2.09,2.09,0,1,1,0,4.1h-3.2a24.83,24.83,0,0,1-5.07,14,18.41,18.41,0,0,1-6.17,5.21,19.38,19.38,0,0,1,6.1,5.67,28.67,28.67,0,0,1,5.13,14.44H43.8a2.09,2.09,0,1,1,0,4.1H2.47Z"/></svg>