<?xml version="1.0" encoding="UTF-8"?>
<svg id="Layer_1" xmlns="http://www.w3.org/2000/svg" viewBox="0 0 80 68.94">
  <defs>
    <style>
      .cls-1 {
        fill: #fff;
      }

      .cls-2 {
        fill: #231f20;
      }

      .cls-3 {
        fill: #ecac79;
      }

      .cls-4 {
        fill: #511d91;
      }
    </style>
  </defs>
  <g>
    <path class="cls-4" d="M79.59,33.11c0,1.45-5.92,4.57-13.21,4.57-.3,0-.6,0-.9-.01.12-1.1.18-2.23.18-3.4,0-2.03-.16-3.94-.46-5.72.39-.01.78-.02,1.17-.02,7.3,0,13.21,2.49,13.21,4.57Z"/>
    <path class="cls-2" d="M66.38,38.09c-.29,0-.58,0-.91-.01h-.45s.05-.45.05-.45c.12-1.09.18-2.22.18-3.36,0-1.97-.15-3.87-.45-5.65l-.08-.46h.47c.37-.03.77-.03,1.19-.03,3.44,0,6.81.54,9.49,1.53,2.63.97,4.14,2.23,4.14,3.45,0,1.88-6.37,4.98-13.62,4.98ZM65.93,37.27c.15,0,.3,0,.45,0,4.29,0,7.6-1.07,9.19-1.71,2.47-.99,3.61-2.05,3.61-2.45,0-1.64-5.5-4.16-12.81-4.16-.24,0-.47,0-.69,0,.26,1.69.39,3.48.39,5.32,0,1.01-.05,2.02-.14,3Z"/>
  </g>
  <g>
    <path class="cls-4" d="M14.47,34.27c-.03,1.29.03,2.54.19,3.77-.34,0-.68.01-1.03.01-7.3,0-13.22-2.95-13.22-4.81,0-1.29,5.92-4.81,13.22-4.81.5,0,1,.01,1.49.03-.37,1.82-.59,3.76-.64,5.8Z"/>
    <path class="cls-2" d="M13.62,38.46c-7.21,0-13.62-2.92-13.62-5.22,0-1.72,6.31-5.22,13.62-5.22.48,0,.99.01,1.5.03l.48.02-.1.47c-.37,1.82-.59,3.75-.63,5.73h0c-.03,1.26.03,2.5.18,3.71l.06.45h-.45c-.39.02-.73.02-1.04.02ZM13.62,28.85c-4.22,0-7.56,1.18-9.18,1.89-2.53,1.1-3.62,2.2-3.62,2.51,0,1.47,5.54,4.4,12.81,4.4.18,0,.37,0,.57,0-.12-1.1-.16-2.24-.14-3.38.04-1.86.23-3.67.56-5.4-.34,0-.67-.01-.99-.01Z"/>
  </g>
  <g>
    <path class="cls-3" d="M37.69,59.76v4.66h-7.67v-6.52c.13.05.27.11.41.16,2.16.84,4.47,1.41,6.86,1.66.13.01.27.03.41.04Z"/>
    <path class="cls-2" d="M34.82,64.01s.04.09.06.13c.01-.05.03-.09.04-.13h-.1ZM37.69,59.76c-.14-.01-.27-.02-.41-.04v4.29h-6.86v-5.95c-.14-.05-.27-.11-.41-.16-.14-.06-.27-.11-.41-.17v7.1h8.49v-5.04c-.14-.01-.27-.02-.41-.03Z"/>
  </g>
  <g>
    <path class="cls-3" d="M51.03,57.7v6.72h-8.15v-4.69c.14-.01.27-.03.41-.04,2.59-.28,5.05-.89,7.34-1.82.14-.06.27-.11.41-.17Z"/>
    <path class="cls-2" d="M48.07,64.01s.04.09.06.13c.01-.05.03-.09.04-.13h-.1ZM51.03,57.7c-.13.06-.27.11-.41.17v6.14h-7.34v-4.32c-.13.02-.27.03-.41.04-.13.01-.27.02-.41.04v5.06h8.96v-7.31c-.13.06-.27.12-.41.18Z"/>
  </g>
  <g>
    <path class="cls-4" d="M61.1,18.28c-1.18-1.65-2.56-3.09-4.11-4.31-.37-.29-.75-.57-1.14-.84.28-.08.56-.15.83-.22,0,0,.01,0,.02,0,.43-.09.85-.16,1.25-.22,3.13-.45,5.43-.07,5.93,1.19.45,1.14-.66,2.76-2.78,4.4Z"/>
    <path class="cls-2" d="M61.02,18.86l-.25-.35c-1.13-1.59-2.49-3.01-4.03-4.23-.37-.29-.75-.57-1.12-.82l-.72-.49.84-.24c.3-.08.58-.16.84-.23.01,0,.03,0,.05-.01.43-.09.86-.16,1.26-.22,3.48-.5,5.8.02,6.37,1.44.51,1.29-.52,3.03-2.91,4.88l-.34.26ZM56.8,13.3c.15.11.3.23.45.35,1.49,1.17,2.81,2.53,3.93,4.04,1.79-1.46,2.66-2.82,2.32-3.67-.4-1.01-2.5-1.36-5.49-.93-.39.05-.8.13-1.22.21Z"/>
  </g>
  <g>
    <path class="cls-4" d="M56.69,12.91c-.27.07-.55.14-.83.22-.02-.01-.03-.02-.05-.03.3-.07.59-.13.88-.19Z"/>
    <path class="cls-2" d="M55.78,13.58l-.99-.66.92-.21c.32-.08.61-.14.89-.19l.18.8c-.26.07-.53.14-.82.22l-.18.05Z"/>
  </g>
  <g>
    <path class="cls-4" d="M56.25,6.69c-1.92.28-4.06.82-6.17,1.65-.91.36-1.78.75-2.61,1.15-2.34-.55-4.83-.82-7.4-.82-1.04,0-2.06.05-3.06.15,1.64-2.02,4.5-4.21,8.04-5.99C51.42-.36,58.2.06,58.79,1.43c.12,1.41-.74,3.31-2.54,5.26Z"/>
    <path class="cls-2" d="M47.52,9.93l-.14-.03c-2.29-.54-4.75-.81-7.31-.81-1.02,0-2.04.05-3.02.15l-.98.1.62-.76c1.74-2.14,4.72-4.36,8.17-6.1C50.28-.25,55.94-.36,58.06.42c.58.21.95.5,1.1.85l.03.06v.06c.14,1.57-.82,3.6-2.64,5.57l-.1.11-.14.02c-2.05.3-4.15.86-6.08,1.63-.89.35-1.76.74-2.58,1.14l-.13.06ZM40.07,8.27c2.57,0,5.04.27,7.36.8.8-.39,1.64-.76,2.51-1.1,1.94-.77,4.05-1.34,6.12-1.66,1.56-1.73,2.41-3.45,2.34-4.76-.07-.1-.26-.23-.6-.36-1.99-.73-7.35-.59-12.56,2.02-2.95,1.48-5.53,3.32-7.24,5.13.69-.05,1.39-.07,2.08-.07Z"/>
  </g>
  <g>
    <path class="cls-4" d="M62.91,7.61c0,1.14-1.25,2.95-3.56,4.76-.83.12-1.72.29-2.64.53,0,0-.01,0-.02,0-.27.07-.55.14-.83.22-.02-.01-.03-.02-.05-.03-1.42-.97-2.97-1.78-4.61-2.44-1.19-.47-2.44-.86-3.73-1.16.82-.4,1.7-.79,2.61-1.15,2.11-.84,4.25-1.37,6.17-1.65,3.77-.55,6.66-.12,6.66.92Z"/>
    <path class="cls-2" d="M55.78,13.58l-.2-.14c-1.38-.95-2.9-1.75-4.53-2.4-1.16-.46-2.4-.85-3.67-1.15l-1.11-.26,1.02-.5c.84-.41,1.73-.81,2.64-1.17,1.98-.79,4.15-1.37,6.26-1.68,3.18-.47,5.82-.26,6.74.53.33.28.39.59.39.8,0,1.34-1.43,3.29-3.72,5.08l-.09.07-.11.02c-.83.12-1.71.29-2.6.52h-.06c-.25.08-.51.15-.78.22l-.18.05ZM56.79,13.3s0,0,0,0c0,0,0,0,0,0ZM48.67,9.39c.92.26,1.82.56,2.67.9,1.64.65,3.18,1.46,4.58,2.4.23-.06.45-.12.66-.17.01,0,.02,0,.04,0,.88-.22,1.73-.4,2.55-.52,2.29-1.81,3.32-3.5,3.32-4.37h0s0-.08-.11-.18c-.6-.52-2.89-.81-6.08-.34-2.05.3-4.15.86-6.08,1.63-.53.21-1.05.43-1.56.66Z"/>
  </g>
  <g>
    <path class="cls-4" d="M65.56,34.32c0,1.17-.06,2.3-.18,3.4-1.04,9.55-6.48,16.47-14.04,19.85-.13.06-.27.12-.41.18-.13.06-.27.11-.41.17-2.29.93-4.75,1.54-7.34,1.82-.13.01-.27.03-.41.04-.13.01-.27.02-.41.04-.79.06-1.6.1-2.41.1-.66,0-1.32-.02-1.97-.07-.14-.01-.27-.02-.41-.03-.14-.01-.27-.02-.41-.04-2.39-.25-4.7-.81-6.86-1.66-.14-.05-.27-.11-.41-.16-.14-.06-.27-.11-.41-.17-7.95-3.41-13.84-10.65-14.95-19.69-.15-1.22-.22-2.48-.19-3.77.05-2.04.27-3.98.64-5.8,2.37-11.56,10.97-18.55,21.89-19.64,1-.1,2.02-.15,3.06-.15,2.57,0,5.06.27,7.4.82,1.29.3,2.53.69,3.73,1.16,1.64.65,3.19,1.46,4.61,2.44.02.01.03.02.05.03.39.27.77.55,1.14.84,1.55,1.22,2.93,2.66,4.11,4.31.11.15.22.3.32.46,1.83,2.71,3.14,5.98,3.78,9.82.3,1.78.46,3.69.46,5.72Z"/>
    <path class="cls-2" d="M39.97,60.33c-.66,0-1.33-.02-2-.07-.14-.01-.28-.02-.42-.03-.13-.01-.26-.02-.39-.04h-.02c-2.4-.25-4.74-.82-6.97-1.68-.13-.05-.25-.1-.38-.15h-.03c-.14-.07-.28-.13-.42-.19-4.03-1.73-7.56-4.45-10.2-7.86-2.72-3.52-4.45-7.72-4.99-12.16-.16-1.24-.22-2.53-.19-3.83.05-2.03.27-4.01.65-5.88,1.16-5.66,3.88-10.49,7.87-13.97,3.85-3.36,8.83-5.44,14.38-5.99,1.01-.1,2.05-.15,3.1-.15,2.62,0,5.14.28,7.5.84,1.31.31,2.58.71,3.78,1.18,1.69.67,3.26,1.5,4.69,2.48l.04.03c.39.27.78.56,1.17.86,1.6,1.26,3.01,2.74,4.19,4.39.11.15.22.31.33.47,1.92,2.84,3.21,6.2,3.85,9.98.31,1.82.46,3.77.46,5.78,0,1.17-.06,2.33-.18,3.45-1.01,9.21-6.21,16.57-14.28,20.18-.14.06-.28.12-.42.18-.09.04-.19.08-.29.12l-.12.05c-2.33.95-4.84,1.57-7.45,1.85-.14.02-.27.03-.41.04-.13.01-.27.02-.41.04-.79.06-1.62.1-2.44.1ZM39.97,9.14c-1.02,0-2.04.05-3.02.15-11.24,1.12-19.29,8.34-21.53,19.31-.37,1.82-.59,3.75-.63,5.73-.03,1.26.03,2.5.18,3.71,1.07,8.63,6.56,15.87,14.71,19.37.13.06.27.11.4.17h.03c.12.06.25.11.37.16,2.16.84,4.43,1.39,6.76,1.63h.01c.13.01.25.03.38.04.14.01.27.02.41.03,1.46.1,2.92.09,4.31-.02.13-.01.27-.02.4-.03.14-.01.27-.03.4-.04,2.54-.27,4.97-.88,7.23-1.79l.11-.05c.1-.04.19-.08.28-.12.14-.06.27-.11.4-.17,7.8-3.49,12.83-10.61,13.8-19.52.12-1.09.18-2.22.18-3.36,0-1.97-.15-3.87-.45-5.65-.62-3.66-1.87-6.91-3.72-9.65-.1-.15-.21-.3-.31-.45-1.13-1.59-2.49-3.01-4.03-4.23-.37-.29-.75-.57-1.12-.82l-.04-.03c-1.38-.95-2.9-1.75-4.53-2.4-1.16-.46-2.4-.85-3.67-1.15-2.29-.54-4.75-.81-7.31-.81Z"/>
  </g>
  <g>
    <ellipse class="cls-1" cx="29.58" cy="28.03" rx="8.6" ry="10.62" transform="translate(-8.26 12.9) rotate(-21.66)"/>
    <path class="cls-2" d="M30.88,38.81c-3.89,0-7.86-2.9-9.67-7.46-1.08-2.72-1.24-5.63-.44-8.18.81-2.58,2.49-4.5,4.74-5.39,2.25-.89,4.79-.66,7.15.67,2.33,1.31,4.21,3.53,5.29,6.26,2.25,5.65.32,11.74-4.3,13.58-.9.36-1.83.53-2.77.53ZM28.3,18.06c-.85,0-1.69.16-2.49.47-2.02.8-3.53,2.53-4.26,4.88-.74,2.37-.59,5.09.42,7.64,1.68,4.23,5.34,6.94,8.9,6.94.84,0,1.68-.15,2.48-.47,4.19-1.67,5.92-7.28,3.84-12.51-1.01-2.55-2.76-4.63-4.93-5.85-1.3-.73-2.65-1.1-3.96-1.1Z"/>
  </g>
  <g>
    <path class="cls-4" d="M37.54,23.02c-1.61-.19-5.66-.44-10.05,1.76-3.81,1.91-5.93,4.69-6.84,6.05-5.46-13.44,10.18-21.42,16.89-7.81Z"/>
    <path class="cls-2" d="M20.57,31.7l-.29-.72c-1.33-3.28-1.53-6.47-.57-9.23.87-2.49,2.6-4.43,4.89-5.46,2.22-1,4.7-1,7-.02,2.56,1.1,4.74,3.36,6.31,6.55l.33.67-.75-.09c-1.94-.22-5.79-.3-9.82,1.72-3.4,1.7-5.51,4.16-6.68,5.92l-.43.64ZM28.1,16.38c-1.11,0-2.19.24-3.16.68-3.82,1.71-6.38,6.65-4.17,12.91,1.29-1.76,3.38-3.97,6.55-5.55,3.62-1.81,7.07-2.05,9.52-1.87-2.39-4.39-5.71-6.17-8.74-6.17Z"/>
  </g>
  <polygon class="cls-2" points="27.37 26.7 26 27.58 26.81 28.64 24.48 30.62 23.56 28.91 22.74 29.7 25.57 34.48 26.5 33.72 27.49 34.97 29.96 33.9 29.29 32.54 30.45 31.79 27.37 26.7"/>
  <g>
    <path class="cls-3" d="M31.08,67.92c.11-.04.26-.12.49-.16.22-.05.41-.05.54-.04.38-.61.62-1.43.62-2.34,0-1.89-1.02-3.42-2.29-3.42s-2.29,1.53-2.29,3.42c0,.92.24,1.75.64,2.36.49.3.91.36,1.14.37.62.03,1.15-.19,1.15-.19Z"/>
    <path class="cls-2" d="M30.05,68.52s-.09,0-.13,0c-.45-.02-.91-.17-1.33-.43l-.08-.05-.05-.08c-.45-.71-.7-1.62-.7-2.58,0-2.15,1.18-3.83,2.69-3.83s2.69,1.68,2.69,3.83c0,.95-.24,1.85-.68,2.55l-.13.2h-.24c-.15-.02-.29-.01-.44.02-.16.03-.27.08-.37.12l-.05.02s-.55.23-1.2.23ZM29.09,67.45c.28.16.57.25.86.26.51.02.96-.15.97-.16l.04-.02c.11-.05.28-.12.52-.17.13-.03.26-.04.39-.05.29-.55.45-1.22.45-1.93,0-1.63-.86-3.01-1.88-3.01s-1.88,1.38-1.88,3.01c0,.77.18,1.5.52,2.06Z"/>
  </g>
  <g>
    <path class="cls-3" d="M37.12,67.99c.19,0,.38,0,.61-.06.23-.06.41-.14.53-.2.38-.61.62-1.43.62-2.34,0-1.89-1.02-3.42-2.29-3.42s-2.29,1.53-2.29,3.42c0,.92.24,1.75.64,2.36.07.01,1.43.23,2.18.24Z"/>
    <path class="cls-2" d="M37.16,68.39s-.03,0-.04,0h0c-.74,0-2-.21-2.24-.25l-.18-.03-.1-.15c-.45-.71-.7-1.62-.7-2.58,0-2.15,1.18-3.83,2.69-3.83s2.69,1.68,2.69,3.83c0,.95-.24,1.85-.68,2.55l-.06.09-.1.05c-.2.11-.41.19-.63.24-.27.06-.49.08-.66.08ZM37.12,67.58c.14,0,.31,0,.51-.05.12-.03.23-.07.34-.12.32-.56.5-1.28.5-2.03,0-1.63-.86-3.01-1.88-3.01s-1.88,1.38-1.88,3.01c0,.74.17,1.44.48,1.99.41.06,1.36.2,1.93.21h0Z"/>
  </g>
  <g>
    <path class="cls-3" d="M33.96,68.5c.21-.02.38-.04.57-.1.21-.06.38-.13.49-.19.38-.61.62-1.43.62-2.34,0-1.89-1.02-3.42-2.29-3.42s-2.29,1.53-2.29,3.42c0,.92.24,1.75.64,2.36.11.04.29.11.52.16.73.18,1.32.13,1.72.1Z"/>
    <path class="cls-2" d="M33.32,68.94c-.34,0-.73-.03-1.18-.14-.19-.05-.39-.11-.57-.18l-.13-.05-.07-.11c-.45-.71-.7-1.62-.7-2.58,0-2.15,1.18-3.83,2.69-3.83s2.69,1.68,2.69,3.83c0,.95-.24,1.85-.68,2.55l-.06.1-.1.05c-.18.09-.37.16-.56.22-.2.06-.39.09-.65.11l-.03-.41.03.41-.03-.41.03.41c-.18.02-.41.03-.67.03ZM31.98,67.9c.11.04.23.07.35.1.66.16,1.2.12,1.59.09h0c.21-.02.35-.04.5-.08.11-.03.21-.07.32-.11.32-.56.5-1.27.5-2.02,0-1.63-.86-3.01-1.88-3.01s-1.88,1.38-1.88,3.01c0,.75.18,1.47.5,2.03Z"/>
  </g>
  <g>
    <path class="cls-3" d="M44.33,67.92c.11-.04.26-.12.49-.16.22-.05.41-.05.54-.04.38-.61.62-1.43.62-2.34,0-1.89-1.02-3.42-2.29-3.42s-2.29,1.53-2.29,3.42c0,.92.24,1.75.64,2.36.49.3.91.36,1.14.37.62.03,1.15-.19,1.15-.19Z"/>
    <path class="cls-2" d="M43.29,68.52s-.09,0-.13,0c-.45-.02-.91-.17-1.33-.43l-.08-.05-.05-.08c-.45-.71-.7-1.62-.7-2.58,0-2.15,1.18-3.83,2.69-3.83s2.69,1.68,2.69,3.83c0,.95-.24,1.85-.68,2.55l-.13.2h-.24c-.15-.02-.29-.01-.44.02-.16.03-.27.08-.37.12l-.05.02s-.55.23-1.2.23ZM42.34,67.45c.28.16.57.25.86.26.51.02.95-.15.97-.16l.04-.02c.11-.05.28-.12.52-.17.13-.03.26-.04.39-.05.29-.55.45-1.22.45-1.93,0-1.63-.86-3.01-1.88-3.01s-1.88,1.38-1.88,3.01c0,.77.18,1.5.52,2.06Z"/>
  </g>
  <g>
    <path class="cls-3" d="M50.37,67.99c.19,0,.38,0,.61-.06.23-.06.41-.14.53-.2.38-.61.62-1.43.62-2.34,0-1.89-1.02-3.42-2.29-3.42s-2.29,1.53-2.29,3.42c0,.92.24,1.75.64,2.36.07.01,1.43.23,2.18.24Z"/>
    <path class="cls-2" d="M50.4,68.39s-.03,0-.04,0h0c-.74,0-2-.21-2.24-.25l-.18-.03-.1-.15c-.45-.71-.7-1.62-.7-2.58,0-2.15,1.18-3.83,2.69-3.83s2.69,1.68,2.69,3.83c0,.95-.24,1.85-.68,2.55l-.06.09-.1.05c-.2.11-.41.19-.63.24-.27.06-.49.08-.66.08ZM50.37,67.58c.14,0,.31,0,.51-.05.12-.03.23-.07.34-.12.32-.56.5-1.28.5-2.03,0-1.63-.86-3.01-1.88-3.01s-1.88,1.38-1.88,3.01c0,.74.17,1.44.48,1.99.41.06,1.36.2,1.93.21h0Z"/>
  </g>
  <g>
    <path class="cls-3" d="M47.2,68.5c.21-.02.38-.04.57-.1.21-.06.38-.13.49-.19.38-.61.62-1.43.62-2.34,0-1.89-1.02-3.42-2.29-3.42s-2.29,1.53-2.29,3.42c0,.92.24,1.75.64,2.36.11.04.29.11.52.16.73.18,1.32.13,1.72.1Z"/>
    <path class="cls-2" d="M46.56,68.94c-.34,0-.73-.03-1.18-.14-.19-.05-.39-.11-.57-.18l-.13-.05-.07-.11c-.45-.71-.7-1.62-.7-2.58,0-2.15,1.18-3.83,2.69-3.83s2.69,1.68,2.69,3.83c0,.95-.24,1.85-.68,2.55l-.06.1-.1.05c-.18.09-.37.16-.56.22-.2.06-.39.09-.65.11l-.03-.41.03.41-.03-.41.03.41c-.18.02-.41.03-.67.03ZM45.23,67.9c.11.04.23.07.35.1.66.16,1.2.12,1.59.09h0c.21-.02.35-.04.5-.08.11-.03.21-.07.32-.11.32-.56.5-1.27.5-2.02,0-1.63-.86-3.01-1.88-3.01s-1.88,1.38-1.88,3.01c0,.75.18,1.47.5,2.03Z"/>
  </g>
  <g>
    <path class="cls-3" d="M50.48,41.66c-1.99,5.57-11.81,6.3-15.4,3.52-6.86-5.32-.02-8.46,6.34-8.44,5,0,9.97,2.36,9.06,4.92Z"/>
    <path class="cls-2" d="M40.9,47.18c-2.41,0-4.66-.58-6.07-1.67-2.47-1.91-3.43-3.71-2.87-5.36.9-2.63,5.49-3.82,9.4-3.82.02,0,.04,0,.06,0,3.93,0,7.74,1.37,9.08,3.26.5.71.63,1.47.36,2.21h0c-.8,2.23-2.86,3.93-5.81,4.79-1.35.39-2.78.58-4.15.58ZM41.36,37.15c-4.28,0-7.98,1.4-8.62,3.26-.55,1.59,1.02,3.42,2.59,4.44,2.91,1.9,6.07,1.95,9.49.95,2.69-.79,4.56-2.31,5.27-4.28.17-.48.09-.96-.26-1.46-1.15-1.64-4.85-2.92-8.41-2.92-.02,0-.04,0-.06,0Z"/>
  </g>
  <g>
    <path class="cls-3" d="M50.46,40.42c-.51,2.04-4.05,3.17-5.96,3.7-.99.26-1.99.45-3,.45-1.67-.02-3.3-.43-4.96-1-5.17-1.79-5.96-4.88.12-6.2,3.35-.71,7.66-.64,10.82.34,1.68.58,3.11,1.28,2.98,2.69v.02Z"/>
    <path class="cls-2" d="M41.51,44.98h0c-1.5-.02-3.07-.33-5.09-1.02-2.91-1.01-4.53-2.42-4.44-3.88.06-.98.91-2.31,4.61-3.11,3.58-.76,7.91-.62,11.03.35,1.79.62,3.42,1.42,3.26,3.12v.08c-.56,2.17-3.84,3.32-6.26,4-1.24.32-2.19.46-3.1.46ZM41.44,37.31c-1.61,0-3.23.15-4.69.46-2.46.53-3.9,1.39-3.96,2.36-.06,1.03,1.43,2.2,3.89,3.05,1.93.65,3.42.95,4.83.97h0c.83,0,1.73-.13,2.89-.44,3.41-.95,5.32-2.09,5.66-3.39.07-.92-.69-1.55-2.7-2.24-1.67-.52-3.78-.78-5.91-.78Z"/>
  </g>
  <g>
    <ellipse class="cls-1" cx="50.68" cy="27.26" rx="8.6" ry="10.62" transform="translate(-6.48 20.63) rotate(-21.66)"/>
    <path class="cls-2" d="M51.96,38.04c-1.45,0-2.93-.4-4.36-1.2-2.33-1.31-4.21-3.53-5.29-6.26-1.08-2.72-1.24-5.63-.44-8.18.81-2.58,2.49-4.5,4.74-5.39,4.61-1.83,10.19,1.28,12.44,6.93h0c2.25,5.65.32,11.74-4.3,13.58-.9.36-1.84.53-2.79.53ZM49.39,17.3c-.84,0-1.68.15-2.48.47-2.02.8-3.53,2.53-4.26,4.88-.74,2.37-.59,5.09.42,7.64,1.01,2.55,2.76,4.63,4.93,5.85,2.14,1.2,4.43,1.43,6.45.62,4.19-1.67,5.92-7.28,3.84-12.51-1.68-4.23-5.34-6.94-8.9-6.94Z"/>
  </g>
  <g>
    <path class="cls-4" d="M58.65,22.25c-1.7-.19-6.86-.54-11.81,2.69-2.58,1.68-4.17,3.73-5.07,5.12-5.46-13.44,10.18-21.42,16.89-7.81Z"/>
    <path class="cls-2" d="M41.68,30.95l-.3-.73c-1.33-3.28-1.53-6.47-.57-9.23.87-2.49,2.6-4.43,4.89-5.46,2.22-1,4.7-1,7-.02,2.56,1.1,4.74,3.36,6.31,6.55l.33.67-.74-.08c-2.4-.27-7.08-.28-11.54,2.63-1.97,1.29-3.64,2.97-4.95,5l-.43.66ZM49.2,15.61c-1.11,0-2.19.24-3.16.68-3.82,1.71-6.38,6.65-4.17,12.9,1.3-1.83,2.89-3.37,4.75-4.58,4.24-2.77,8.67-3.01,11.33-2.82-2.39-4.4-5.71-6.17-8.74-6.17Z"/>
  </g>
  <polygon class="cls-2" points="48.6 25.93 47.23 26.81 48.04 27.87 45.71 29.86 44.79 28.14 43.97 28.93 46.8 33.71 47.74 32.96 48.73 34.2 51.19 33.13 50.52 31.77 51.68 31.02 48.6 25.93"/>
</svg>