<?xml version="1.0" encoding="UTF-8"?>
<svg id="Layer_1" xmlns="http://www.w3.org/2000/svg" viewBox="0 0 586.69 505.55">
  <defs>
    <style>
      .cls-1 {
        fill: #fff;
      }

      .cls-2 {
        fill: #231f20;
      }

      .cls-3 {
        fill: #ecac79;
      }

      .cls-4 {
        fill: #511d91;
      }
    </style>
  </defs>
  <g>
    <path class="cls-4" d="M583.69,242.81c0,10.63-43.39,33.53-96.91,33.53-2.21,0-4.41-.03-6.59-.08.88-8.06,1.33-16.38,1.33-24.94,0-14.89-1.15-28.86-3.34-41.92,2.83-.09,5.7-.13,8.6-.13,53.52,0,96.91,18.26,96.91,33.54Z"/>
    <path class="cls-2" d="M486.78,279.34c-2.1,0-4.28-.03-6.66-.08l-3.27-.07.35-3.25c.87-7.98,1.31-16.26,1.31-24.62,0-14.44-1.11-28.37-3.3-41.42l-.57-3.39,3.43-.11c2.75-.09,5.67-.13,8.69-.13,25.25,0,49.96,3.99,69.56,11.23,19.29,7.12,30.35,16.35,30.35,25.31,0,13.76-46.7,36.53-99.91,36.53ZM483.5,273.32c1.12.01,2.21.02,3.28.02,31.47,0,55.74-7.87,67.41-12.56,18.08-7.27,26.5-15.02,26.5-17.97,0-12.01-40.33-30.54-93.91-30.54-1.74,0-3.44.01-5.1.04,1.88,12.38,2.84,25.49,2.84,39.01,0,7.44-.34,14.82-1.02,22Z"/>
  </g>
  <g>
    <path class="cls-4" d="M106.13,251.32c-.22,9.43.24,18.66,1.36,27.64-2.5.06-5.02.1-7.57.1-53.53,0-96.92-21.62-96.92-35.26,0-9.46,43.39-35.26,96.92-35.26,3.69,0,7.33.08,10.91.22-2.74,13.37-4.35,27.57-4.7,42.56Z"/>
    <path class="cls-2" d="M99.92,282.06c-52.88,0-99.92-21.4-99.92-38.26,0-12.6,46.25-38.26,99.92-38.26,3.54,0,7.25.07,11.03.22l3.53.14-.71,3.46c-2.74,13.37-4.3,27.51-4.64,42.03h0c-.21,9.21.24,18.36,1.34,27.2l.41,3.29-3.32.08c-2.84.07-5.34.1-7.64.1ZM99.92,211.54c-30.93,0-55.47,8.67-67.34,13.83-18.56,8.08-26.58,16.11-26.58,18.43,0,10.76,40.6,32.26,93.92,32.26,1.33,0,2.72-.01,4.21-.03-.86-8.1-1.2-16.42-1-24.78.32-13.62,1.69-26.93,4.08-39.61-2.48-.07-4.92-.1-7.29-.1Z"/>
  </g>
  <g>
    <path class="cls-3" d="M276.42,438.24v34.19h-56.28v-47.8c.99.4,1.98.8,2.98,1.19,15.86,6.18,32.76,10.32,50.32,12.14.99.1,1.98.2,2.98.28Z"/>
    <path class="cls-2" d="M255.38,469.44c.16.31.31.63.45.96.1-.33.2-.65.3-.96h-.75ZM276.42,438.24c-1-.08-1.99-.18-2.98-.28v31.48h-50.32v-43.62c-1-.39-1.99-.79-2.98-1.19-1-.41-2-.83-2.99-1.26v52.05h62.26v-36.93c-1-.08-2-.16-2.99-.25Z"/>
  </g>
  <g>
    <path class="cls-3" d="M374.24,423.13v49.3h-59.77v-34.38c1-.09,1.99-.19,2.98-.3,18.96-2.04,37.04-6.55,53.8-13.36,1-.42,2-.83,2.99-1.26Z"/>
    <path class="cls-2" d="M352.53,469.44c.16.31.31.63.45.96.1-.33.2-.65.3-.96h-.75ZM374.24,423.13c-.99.43-1.99.84-2.99,1.26v45.05h-53.8v-31.69c-.99.11-1.98.21-2.98.3-.99.1-1.99.18-2.99.26v37.11h65.74v-53.59c-.99.45-1.98.88-2.98,1.3Z"/>
  </g>
  <g>
    <path class="cls-4" d="M448.1,134.06c-8.64-12.12-18.77-22.65-30.12-31.6-2.72-2.14-5.51-4.2-8.37-6.16,2.06-.58,4.1-1.13,6.11-1.64.04-.01.08-.02.12-.02,3.15-.63,6.22-1.16,9.19-1.58,22.92-3.3,39.8-.53,43.47,8.71,3.31,8.34-4.84,20.24-20.4,32.29Z"/>
    <path class="cls-2" d="M447.47,138.35l-1.81-2.54c-8.31-11.66-18.25-22.09-29.53-30.99-2.71-2.14-5.48-4.17-8.21-6.04l-5.29-3.62,6.17-1.74c2.2-.62,4.23-1.16,6.19-1.66.1-.03.24-.06.4-.08,3.19-.64,6.29-1.17,9.22-1.58,25.53-3.68,42.55.18,46.68,10.57,3.77,9.49-3.82,22.19-21.35,35.77l-2.47,1.91ZM416.52,97.57c1.11.83,2.21,1.68,3.31,2.54,10.9,8.6,20.6,18.57,28.85,29.66,13.16-10.73,19.5-20.67,17.03-26.89-2.93-7.38-18.35-10-40.25-6.85-2.84.4-5.84.92-8.93,1.53Z"/>
  </g>
  <g>
    <path class="cls-4" d="M415.72,94.66c-2.01.51-4.05,1.06-6.11,1.64-.12-.08-.23-.16-.35-.24,2.19-.51,4.34-.98,6.46-1.4Z"/>
    <path class="cls-2" d="M409.09,99.56l-7.27-4.85,6.75-1.57c2.36-.55,4.51-1.02,6.56-1.42l1.32,5.85c-1.91.48-3.88,1.01-6.04,1.62l-1.33.37Z"/>
  </g>
  <g>
    <path class="cls-4" d="M412.51,49.08c-14.05,2.06-29.78,5.98-45.25,12.12-6.69,2.66-13.09,5.5-19.13,8.47-17.19-4.05-35.42-6.05-54.3-6.05-7.61,0-15.1.37-22.45,1.11,12.01-14.78,33-30.88,58.94-43.91C377.06-2.65,426.84.41,431.11,10.49c.89,10.32-5.4,24.26-18.6,38.59Z"/>
    <path class="cls-2" d="M348.49,72.84l-1.05-.25c-16.82-3.96-34.85-5.97-53.61-5.97-7.48,0-14.93.37-22.15,1.09l-7.18.72,4.55-5.6c12.74-15.68,34.58-31.97,59.92-44.7C368.72-1.82,410.26-2.65,425.81,3.07c4.25,1.56,6.96,3.67,8.06,6.25l.19.44.04.47c.99,11.53-6.07,26.43-19.38,40.88l-.72.78-1.05.15c-15.04,2.21-30.45,6.33-44.58,11.94-6.52,2.59-12.89,5.41-18.91,8.37l-.96.47ZM293.83,60.62c18.83,0,36.98,1.98,53.94,5.89,5.88-2.86,12.06-5.58,18.38-8.09,14.22-5.64,29.71-9.83,44.86-12.14,11.48-12.69,17.68-25.34,17.15-34.93-.52-.72-1.89-1.71-4.42-2.64-14.57-5.36-53.91-4.36-92.08,14.8-21.62,10.86-40.56,24.31-53.12,37.62,5.04-.33,10.16-.5,15.29-.5Z"/>
  </g>
  <g>
    <path class="cls-4" d="M461.36,55.84c0,8.34-9.16,21.65-26.14,34.91-6.08.87-12.58,2.16-19.38,3.89-.04,0-.08.01-.12.02-2.01.51-4.05,1.06-6.11,1.64-.12-.08-.23-.16-.35-.24-10.44-7.15-21.76-13.09-33.81-17.86-8.75-3.47-17.88-6.31-27.32-8.53,6.04-2.97,12.44-5.81,19.13-8.47,15.47-6.14,31.2-10.06,45.25-12.12,27.67-4.06,48.86-.9,48.85,6.76Z"/>
    <path class="cls-2" d="M409.09,99.56l-1.5-1.01c-10.12-6.93-21.3-12.84-33.25-17.57-8.52-3.38-17.57-6.2-26.9-8.4l-8.15-1.92,7.52-3.7c6.17-3.03,12.67-5.91,19.34-8.56,14.55-5.78,30.43-10.03,45.92-12.3,23.33-3.42,42.72-1.9,49.39,3.87,2.39,2.07,2.89,4.33,2.89,5.86,0,9.84-10.46,24.12-27.29,37.27l-.63.49-.79.11c-6.1.87-12.51,2.16-19.07,3.83l-.41.09c-1.82.47-3.71.97-5.75,1.55l-1.33.37ZM416.47,97.57s0,0,0,0c0,0,0,0,0,0ZM356.94,68.84c6.75,1.88,13.32,4.08,19.62,6.58,12.04,4.77,23.34,10.69,33.59,17.62,1.69-.47,3.28-.89,4.83-1.28.08-.02.17-.04.29-.06,6.42-1.63,12.71-2.9,18.73-3.79,16.82-13.29,24.36-25.65,24.36-32.06h0c0-.15,0-.61-.82-1.32-4.43-3.83-21.17-5.91-44.6-2.48-15.04,2.21-30.45,6.33-44.58,11.94-3.88,1.54-7.7,3.16-11.43,4.85Z"/>
  </g>
  <g>
    <path class="cls-4" d="M480.79,251.72c0,8.56-.45,16.88-1.33,24.94-7.65,70.05-47.53,120.76-102.97,145.57-.99.45-1.98.88-2.98,1.3-.99.43-1.99.84-2.99,1.26-16.76,6.81-34.84,11.32-53.8,13.36-.99.11-1.98.21-2.98.3-.99.1-1.99.18-2.99.26-5.81.47-11.7.7-17.65.7-4.85,0-9.66-.18-14.42-.52-1-.08-2-.16-2.99-.25-1-.08-1.99-.18-2.98-.28-17.56-1.82-34.46-5.96-50.32-12.14-1-.39-1.99-.79-2.98-1.19-1-.41-2-.83-2.99-1.26-58.33-25.03-101.48-78.12-109.66-144.41-1.12-8.98-1.58-18.21-1.36-27.64.35-14.99,1.96-29.19,4.7-42.56,17.37-84.79,80.45-136.02,160.55-144.03,7.35-.74,14.84-1.11,22.45-1.11,18.88,0,37.11,2,54.3,6.05,9.44,2.22,18.57,5.06,27.32,8.53,12.05,4.77,23.37,10.71,33.81,17.86.12.08.23.16.35.24,2.86,1.96,5.65,4.02,8.37,6.16,11.35,8.95,21.48,19.48,30.12,31.6.8,1.11,1.58,2.23,2.35,3.36,13.41,19.86,23,43.82,27.73,71.98,2.19,13.06,3.34,27.03,3.34,41.92Z"/>
    <path class="cls-2" d="M293.1,442.41c-4.82,0-9.74-.18-14.63-.53-1.03-.08-2.05-.16-3.05-.25-.94-.07-1.92-.17-2.89-.27h-.12c-17.6-1.84-34.8-5.99-51.11-12.34-.94-.37-1.87-.74-2.8-1.11l-.22-.09c-1.04-.42-2.05-.85-3.06-1.29-29.58-12.69-55.46-32.63-74.81-57.65-19.95-25.78-32.61-56.61-36.63-89.15-1.14-9.13-1.6-18.58-1.38-28.08.35-14.88,1.95-29.37,4.76-43.09,8.5-41.48,28.46-76.92,57.72-102.47,28.26-24.68,64.73-39.87,105.47-43.95,7.41-.75,15.07-1.12,22.75-1.12,19.22,0,37.72,2.06,54.99,6.13,9.62,2.26,18.95,5.18,27.74,8.66,12.36,4.89,23.94,11.01,34.4,18.17l.32.22c2.87,1.96,5.74,4.08,8.56,6.3,11.73,9.25,22.06,20.09,30.71,32.22.81,1.12,1.6,2.26,2.39,3.41,14.06,20.83,23.55,45.44,28.21,73.17,2.24,13.38,3.38,27.65,3.38,42.42,0,8.57-.45,17.07-1.35,25.27-7.38,67.56-45.55,121.5-104.73,147.98-1,.46-2.02.9-3.04,1.33-.68.3-1.4.6-2.13.9l-.86.36c-17.11,6.95-35.48,11.52-54.64,13.58-1,.11-2.01.21-3.03.31-.98.1-2,.18-3.02.26-5.82.47-11.84.71-17.89.71ZM293.1,67.02c-7.48,0-14.93.37-22.15,1.09-82.4,8.24-141.43,61.19-157.91,141.65-2.74,13.37-4.3,27.51-4.64,42.03-.21,9.21.24,18.36,1.34,27.2,7.81,63.3,48.13,116.39,107.87,142.02.98.43,1.96.84,2.94,1.24l.2.08c.91.37,1.81.73,2.73,1.09,15.81,6.16,32.48,10.18,49.54,11.95h.11c.93.1,1.86.2,2.8.27,1.02.09,2,.17,2.99.25,10.69.76,21.42.64,31.59-.18.98-.08,1.96-.16,2.93-.25,1.01-.09,1.98-.19,2.95-.3,18.61-2,36.44-6.43,53-13.16l.84-.35c.7-.29,1.39-.58,2.08-.88,1.01-.42,1.97-.84,2.94-1.28,57.2-25.6,94.09-77.77,101.23-143.16.87-7.98,1.31-16.26,1.31-24.61,0-14.44-1.11-28.37-3.3-41.42-4.51-26.88-13.68-50.7-27.26-70.8-.75-1.1-1.51-2.2-2.3-3.29-8.32-11.68-18.26-22.1-29.54-31-2.72-2.14-5.48-4.17-8.21-6.04l-.32-.22c-10.12-6.93-21.3-12.84-33.25-17.57-8.52-3.38-17.57-6.2-26.9-8.4-16.81-3.96-34.85-5.97-53.61-5.97Z"/>
  </g>
  <g>
    <ellipse class="cls-1" cx="216.92" cy="205.54" rx="63.03" ry="77.91" transform="translate(-60.55 94.59) rotate(-21.66)"/>
    <path class="cls-2" d="M226.45,284.59c-28.51,0-57.64-21.28-70.9-54.68-7.93-19.98-9.09-41.29-3.25-60.01,5.91-18.95,18.25-33,34.76-39.55,16.51-6.56,35.12-4.81,52.42,4.93,17.09,9.62,30.88,25.91,38.81,45.89,16.47,41.46,2.33,86.13-31.5,99.57-6.58,2.62-13.44,3.86-20.33,3.86ZM207.52,132.46c-6.27,0-12.42,1.15-18.25,3.47-14.79,5.87-25.89,18.58-31.24,35.76-5.43,17.42-4.33,37.31,3.1,56.01,12.33,31.04,39.17,50.9,65.26,50.9,6.17,0,12.3-1.11,18.19-3.45,30.76-12.22,43.39-53.39,28.14-91.78-7.43-18.7-20.28-33.93-36.18-42.88-9.5-5.34-19.4-8.05-29.01-8.05Z"/>
  </g>
  <g>
    <path class="cls-4" d="M275.33,168.83c-11.81-1.37-41.54-3.21-73.69,12.9-27.92,13.99-43.49,34.43-50.14,44.4-40.01-98.54,74.63-157.09,123.83-57.3Z"/>
    <path class="cls-2" d="M150.86,232.51l-2.13-5.25c-9.75-24.02-11.2-47.42-4.17-67.65,6.34-18.28,19.08-32.49,35.85-40.02,16.27-7.3,34.5-7.35,51.33-.12,18.76,8.05,34.77,24.66,46.29,48.04l2.44,4.94-5.47-.63c-14.21-1.65-42.46-2.2-72,12.6-24.92,12.49-40.39,30.48-48.99,43.38l-3.14,4.72ZM206.06,120.09c-8.17,0-16.05,1.76-23.2,4.97-28.01,12.57-46.81,48.79-30.57,94.7,9.45-12.93,24.82-29.09,48.01-40.71,26.54-13.3,51.81-15.06,69.84-13.73-17.5-32.22-41.86-45.23-64.08-45.23Z"/>
  </g>
  <polygon class="cls-2" points="200.73 195.81 190.68 202.27 196.61 210.05 179.5 224.59 172.77 212.01 166.74 217.81 187.51 252.85 194.38 247.32 201.63 256.45 219.7 248.61 214.81 238.63 223.31 233.14 200.73 195.81"/>
  <g>
    <path class="cls-3" d="M227.96,498.11c.78-.33,1.88-.86,3.59-1.21,1.64-.34,3.04-.34,3.97-.29,2.81-4.49,4.55-10.51,4.55-17.15,0-13.86-7.5-25.09-16.76-25.09s-16.76,11.24-16.76,25.09c0,6.73,1.78,12.83,4.66,17.34,3.6,2.24,6.71,2.63,8.33,2.71,4.55.21,8.43-1.4,8.43-1.4Z"/>
    <path class="cls-2" d="M220.34,502.53c-.31,0-.63,0-.95-.02-3.31-.15-6.69-1.24-9.76-3.15l-.58-.36-.37-.57c-3.31-5.18-5.13-11.91-5.13-18.95,0-15.75,8.67-28.08,19.75-28.08s19.75,12.33,19.75,28.08c0,6.93-1.78,13.58-5,18.73l-.94,1.5-1.76-.1c-1.08-.07-2.16.01-3.2.23-1.18.24-1.98.58-2.68.89l-.36.15c-.17.07-4.03,1.65-8.77,1.65ZM213.36,494.62c2.05,1.16,4.21,1.82,6.31,1.92,3.72.17,7-1.12,7.15-1.18l.3-.13c.82-.35,2.06-.88,3.84-1.25.94-.19,1.89-.31,2.85-.35,2.12-4,3.28-8.96,3.28-14.15,0-11.98-6.31-22.11-13.77-22.11s-13.77,10.12-13.77,22.11c0,5.65,1.36,10.99,3.83,15.14Z"/>
  </g>
  <g>
    <path class="cls-3" d="M272.21,498.58c1.39.01,2.82-.07,4.45-.47,1.7-.41,3.02-1.02,3.9-1.49,2.81-4.49,4.55-10.51,4.55-17.15,0-13.86-7.5-25.09-16.76-25.09s-16.76,11.24-16.76,25.09c0,6.73,1.78,12.83,4.66,17.34.53.09,10.46,1.72,15.97,1.77Z"/>
    <path class="cls-2" d="M272.5,501.57c-.11,0-.21,0-.31,0h0c-5.46-.06-14.64-1.52-16.42-1.81l-1.31-.22-.72-1.12c-3.31-5.18-5.13-11.9-5.13-18.95,0-15.75,8.67-28.08,19.75-28.08s19.75,12.33,19.75,28.08c0,6.93-1.78,13.58-5,18.73l-.42.68-.7.37c-1.46.78-3.01,1.37-4.59,1.76-1.94.48-3.6.56-4.87.56ZM272.24,495.6c1.03.03,2.26-.03,3.71-.38.85-.21,1.69-.5,2.49-.87,2.37-4.11,3.67-9.36,3.67-14.86,0-11.98-6.31-22.11-13.77-22.11s-13.77,10.12-13.77,22.11c0,5.41,1.24,10.54,3.52,14.61,3.01.47,9.98,1.47,14.15,1.52h0Z"/>
  </g>
  <g>
    <path class="cls-3" d="M249.03,502.33c1.55-.13,2.81-.31,4.21-.7,1.55-.43,2.78-.97,3.61-1.38,2.81-4.49,4.55-10.51,4.55-17.15,0-13.86-7.5-25.09-16.76-25.09s-16.76,11.24-16.76,25.09c0,6.73,1.78,12.83,4.66,17.34.81.31,2.15.78,3.84,1.19,5.34,1.31,9.65.95,12.64.7Z"/>
    <path class="cls-2" d="M244.34,505.55c-2.48,0-5.39-.23-8.66-1.03-1.43-.35-2.84-.79-4.19-1.3l-.92-.35-.53-.83c-3.31-5.18-5.13-11.9-5.13-18.95,0-15.75,8.67-28.08,19.75-28.08s19.75,12.33,19.75,28.08c0,6.93-1.78,13.59-5,18.73l-.45.72-.76.37c-1.33.66-2.72,1.19-4.14,1.58-1.49.41-2.87.64-4.77.8l-.25-2.98.25,2.98-.25-2.98.24,2.98c-1.36.11-3.02.25-4.94.25ZM234.55,497.98c.83.28,1.69.53,2.55.75,4.86,1.19,8.81.87,11.68.63h0c1.52-.13,2.55-.29,3.66-.6.79-.22,1.57-.5,2.32-.82,2.36-4.11,3.65-9.34,3.65-14.83,0-11.98-6.31-22.11-13.77-22.11s-13.77,10.12-13.77,22.11c0,5.53,1.3,10.77,3.68,14.88Z"/>
  </g>
  <g>
    <path class="cls-3" d="M325.11,498.11c.78-.33,1.88-.86,3.59-1.21,1.64-.34,3.04-.34,3.97-.29,2.81-4.49,4.55-10.51,4.55-17.15,0-13.86-7.5-25.09-16.76-25.09s-16.76,11.24-16.76,25.09c0,6.73,1.78,12.83,4.66,17.34,3.6,2.24,6.71,2.63,8.33,2.71,4.55.21,8.43-1.4,8.43-1.4Z"/>
    <path class="cls-2" d="M317.49,502.53c-.31,0-.63,0-.95-.02-3.31-.15-6.69-1.24-9.76-3.15l-.58-.36-.37-.57c-3.31-5.18-5.13-11.9-5.13-18.95,0-15.75,8.67-28.08,19.75-28.08s19.75,12.33,19.75,28.08c0,6.93-1.78,13.58-5,18.73l-.94,1.5-1.76-.1c-1.08-.07-2.16.01-3.2.23-1.18.24-1.98.58-2.68.89l-.36.15c-.17.07-4.03,1.65-8.77,1.65ZM310.51,494.62c2.05,1.16,4.21,1.82,6.31,1.92,3.72.16,6.99-1.12,7.15-1.18l.3-.13c.82-.35,2.06-.88,3.84-1.25.94-.19,1.89-.31,2.85-.35,2.12-4,3.28-8.96,3.28-14.15,0-11.98-6.31-22.11-13.77-22.11s-13.77,10.12-13.77,22.11c0,5.65,1.36,10.99,3.83,15.14Z"/>
  </g>
  <g>
    <path class="cls-3" d="M369.36,498.58c1.39.01,2.82-.07,4.45-.47,1.7-.41,3.02-1.02,3.9-1.49,2.81-4.49,4.55-10.51,4.55-17.15,0-13.86-7.5-25.09-16.76-25.09s-16.76,11.24-16.76,25.09c0,6.73,1.78,12.83,4.66,17.34.53.09,10.46,1.72,15.97,1.77Z"/>
    <path class="cls-2" d="M369.65,501.57c-.11,0-.21,0-.31,0h0c-5.46-.06-14.64-1.52-16.42-1.81l-1.31-.22-.72-1.12c-3.31-5.18-5.13-11.91-5.13-18.95,0-15.75,8.67-28.08,19.75-28.08s19.75,12.33,19.75,28.08c0,6.93-1.78,13.59-5,18.73l-.42.68-.7.37c-1.46.78-3.01,1.37-4.59,1.76-1.95.48-3.6.56-4.87.56ZM369.39,495.6c1,.02,2.25-.03,3.71-.38.85-.21,1.69-.5,2.49-.87,2.37-4.11,3.67-9.36,3.67-14.86,0-11.98-6.31-22.11-13.77-22.11s-13.77,10.12-13.77,22.11c0,5.41,1.24,10.54,3.52,14.61,3.01.47,9.98,1.47,14.15,1.52h0Z"/>
  </g>
  <g>
    <path class="cls-3" d="M346.18,502.33c1.55-.13,2.81-.31,4.21-.7,1.55-.43,2.78-.97,3.61-1.38,2.81-4.49,4.55-10.51,4.55-17.15,0-13.86-7.5-25.09-16.76-25.09s-16.76,11.24-16.76,25.09c0,6.73,1.78,12.83,4.66,17.34.81.31,2.15.78,3.84,1.19,5.34,1.31,9.65.95,12.64.7Z"/>
    <path class="cls-2" d="M341.49,505.55c-2.48,0-5.39-.23-8.66-1.03-1.43-.35-2.84-.79-4.19-1.3l-.92-.35-.53-.83c-3.31-5.18-5.13-11.9-5.13-18.95,0-15.75,8.67-28.08,19.75-28.08s19.75,12.33,19.75,28.08c0,6.93-1.78,13.59-5,18.73l-.45.72-.76.37c-1.32.66-2.72,1.19-4.14,1.58-1.49.41-2.87.64-4.77.8l-.25-2.98.25,2.98-.25-2.98.24,2.98c-1.36.11-3.02.25-4.94.25ZM331.7,497.98c.83.28,1.69.53,2.55.75,4.86,1.19,8.8.87,11.68.63h0c1.52-.13,2.55-.29,3.66-.6.79-.22,1.57-.5,2.32-.82,2.36-4.11,3.65-9.34,3.65-14.83,0-11.98-6.31-22.11-13.77-22.11s-13.77,10.12-13.77,22.11c0,5.53,1.3,10.77,3.68,14.88Z"/>
  </g>
  <g>
    <path class="cls-3" d="M370.17,305.54c-14.6,40.85-86.58,46.21-112.91,25.79-50.31-39.02-.16-62.03,46.49-61.88,36.68,0,73.13,17.32,66.42,36.1Z"/>
    <path class="cls-2" d="M299.92,345.97c-17.67,0-34.18-4.27-44.5-12.27-18.08-14.03-25.15-27.24-21.01-39.27,6.63-19.25,40.26-27.98,68.9-27.98.15,0,.3,0,.45,0,28.8,0,56.79,10.06,66.56,23.93,3.67,5.21,4.6,10.8,2.68,16.18h0c-5.84,16.34-20.97,28.82-42.61,35.13-9.9,2.89-20.37,4.28-30.47,4.28ZM303.29,272.45c-31.38,0-58.5,10.25-63.21,23.93-4,11.63,7.49,25.05,19.02,32.58,21.36,13.96,44.5,14.3,69.61,6.97,19.74-5.76,33.46-16.91,38.64-31.39,1.27-3.55.64-7.05-1.93-10.7-8.45-11.99-35.54-21.38-61.67-21.38-.15,0-.31,0-.46,0Z"/>
  </g>
  <g>
    <path class="cls-3" d="M370.06,296.39c-3.77,14.98-29.67,23.24-43.7,27.17-7.26,1.88-14.61,3.3-22,3.29-12.24-.17-24.2-3.19-36.37-7.3-37.94-13.16-43.7-35.8.91-45.46,24.59-5.2,56.19-4.7,79.35,2.47,12.36,4.25,22.78,9.41,21.83,19.71l-.02.13Z"/>
    <path class="cls-2" d="M304.41,329.85h-.05c-11.01-.15-22.51-2.45-37.33-7.46-21.33-7.4-33.19-17.76-32.54-28.44.43-7.16,6.64-16.92,33.78-22.79,26.24-5.55,57.98-4.55,80.88,2.53,13.15,4.52,25.08,10.39,23.94,22.85l-.1.58c-4,15.91-28.05,24.35-45.8,29.32-9.08,2.36-16.09,3.4-22.77,3.4ZM303.93,273.64c-11.8,0-23.7,1.11-34.42,3.38-18.02,3.9-28.61,10.21-29.04,17.29-.46,7.56,10.46,16.14,28.5,22.4,14.18,4.79,25.12,7,35.43,7.14h.04c6.11,0,12.66-.99,21.17-3.19,25-7,38.98-15.36,41.5-24.83.52-6.73-5.06-11.35-19.84-16.43-12.28-3.8-27.72-5.75-43.34-5.75Z"/>
  </g>
  <g>
    <ellipse class="cls-1" cx="371.68" cy="199.91" rx="63.03" ry="77.91" transform="translate(-47.54 151.32) rotate(-21.66)"/>
    <path class="cls-2" d="M381.06,279c-10.63,0-21.52-2.97-31.94-8.83-17.09-9.62-30.88-25.91-38.81-45.89s-9.09-41.29-3.25-60.01c5.91-18.95,18.25-33,34.76-39.55,33.84-13.44,74.77,9.36,91.23,50.82h0c16.47,41.46,2.33,86.13-31.5,99.57-6.56,2.61-13.46,3.9-20.48,3.9ZM362.21,126.84c-6.17,0-12.3,1.11-18.19,3.45-14.79,5.87-25.89,18.58-31.24,35.76-5.43,17.42-4.33,37.31,3.1,56.01,7.43,18.7,20.28,33.93,36.18,42.88,15.69,8.83,32.48,10.45,47.27,4.58,30.76-12.22,43.39-53.39,28.14-91.78-12.33-31.04-39.17-50.9-65.26-50.9Z"/>
  </g>
  <g>
    <path class="cls-4" d="M430.1,163.19c-12.49-1.4-50.29-3.97-86.63,19.74-18.92,12.34-30.6,27.35-37.2,37.56-40.01-98.54,74.63-157.09,123.83-57.3Z"/>
    <path class="cls-2" d="M305.66,226.96l-2.17-5.34c-9.75-24.02-11.2-47.42-4.17-67.65,6.34-18.28,19.08-32.49,35.85-40.02,16.27-7.3,34.5-7.35,51.33-.12,18.76,8.05,34.77,24.66,46.29,48.04l2.42,4.92-5.45-.61c-17.57-1.97-51.93-2.08-84.65,19.27-14.48,9.44-26.7,21.78-36.32,36.68l-3.13,4.84ZM360.82,114.46c-8.17,0-16.05,1.76-23.2,4.97-27.99,12.56-46.78,48.74-30.6,94.6,9.53-13.46,21.22-24.74,34.81-33.61,31.13-20.31,63.62-22.09,83.09-20.71-17.5-32.24-41.87-45.25-64.09-45.25Z"/>
  </g>
  <polygon class="cls-2" points="356.44 190.17 346.4 196.64 352.33 204.42 335.22 218.95 328.49 206.37 322.46 212.18 343.23 247.21 350.09 241.68 357.35 250.81 375.42 242.98 370.53 233 379.03 227.51 356.44 190.17"/>
</svg>