<?xml version="1.0" encoding="UTF-8" standalone="no"?>
<svg
   id="Layer_1"
   data-name="Layer 1"
   viewBox="0 0 596.69 510.6"
   version="1.1"
   sodipodi:docname="flock-bird-mascot-2colours-dark2.svg"
   inkscape:version="1.4.2 (ebf0e940d0, 2025-05-08)"
   xmlns:inkscape="http://www.inkscape.org/namespaces/inkscape"
   xmlns:sodipodi="http://sodipodi.sourceforge.net/DTD/sodipodi-0.dtd"
   xmlns="http://www.w3.org/2000/svg"
   xmlns:svg="http://www.w3.org/2000/svg">
  <sodipodi:namedview
     id="namedview51"
     pagecolor="#ffffff"
     bordercolor="#000000"
     borderopacity="0.25"
     inkscape:showpageshadow="2"
     inkscape:pageopacity="0.0"
     inkscape:pagecheckerboard="0"
     inkscape:deskcolor="#d1d1d1"
     inkscape:zoom="1.7312965"
     inkscape:cx="298.33134"
     inkscape:cy="255.3"
     inkscape:window-width="1920"
     inkscape:window-height="1128"
     inkscape:window-x="0"
     inkscape:window-y="0"
     inkscape:window-maximized="1"
     inkscape:current-layer="Layer_1" />
  <defs
     id="defs1">
    <style
       id="style1">
      .cls-1 {
        fill: #fff;
      }

      .cls-2 {
        fill: #231f20;
      }

      .cls-3 {
        fill: #511d91;
      }
    </style>
  </defs>
  <path
     class="cls-1"
     d="M588.69,247.86c0,10.63-43.39,33.53-96.91,33.53-2.21,0-4.41-.03-6.59-.08.88-8.06,1.33-16.38,1.33-24.94,0-14.89-1.15-28.86-3.34-41.92,2.83-.09,5.7-.13,8.6-.13,53.52,0,96.91,18.26,96.91,33.54Z"
     id="path1"
     style="fill:#bababa;fill-opacity:1" />
  <g
     id="g3">
    <path
       class="cls-2"
       d="M491.78,284.39c-2.1,0-4.28-.03-6.66-.08l-3.27-.07.35-3.25c.87-7.98,1.31-16.26,1.31-24.62,0-14.44-1.11-28.37-3.3-41.42l-.57-3.39,3.43-.11c2.75-.09,5.67-.13,8.69-.13,25.25,0,49.96,3.99,69.56,11.23,19.29,7.12,30.35,16.35,30.35,25.31,0,13.76-46.7,36.53-99.91,36.53ZM488.5,278.37c1.12.01,2.21.02,3.28.02,31.47,0,55.74-7.87,67.41-12.56,18.08-7.27,26.5-15.02,26.5-17.97,0-12.01-40.33-30.54-93.91-30.54-1.74,0-3.44.01-5.1.04,1.88,12.38,2.84,25.49,2.84,39.01,0,7.44-.34,14.82-1.02,22Z"
       id="path2" />
    <path
       class="cls-2"
       d="M491.78,289.39c-2.14,0-4.36-.03-6.77-.08l-8.71-.2.95-8.67c.85-7.8,1.28-15.9,1.28-24.07,0-14.16-1.09-27.82-3.23-40.6l-1.51-9.03,9.15-.29c2.81-.09,5.78-.13,8.85-.13,25.83,0,51.15,4.1,71.3,11.54,21.68,8,33.61,18.66,33.61,30,0,13.23-23.17,24.03-33.12,28.06-21.16,8.56-47.33,13.47-71.79,13.47ZM492.42,222.32c1.39,10.92,2.1,22.35,2.1,34.05,0,5.71-.2,11.41-.59,17.01,29.58-.34,52.33-7.74,63.39-12.19,15.42-6.2,21.8-12,23.25-13.89-.9-2.5-7.22-8.58-23.46-14.51-18.29-6.69-41.24-10.39-64.69-10.46ZM580.86,246.86h0Z"
       id="path3" />
  </g>
  <path
     class="cls-1"
     d="M111.13,256.37c-.22,9.43.24,18.66,1.36,27.64-2.5.06-5.02.1-7.57.1-53.53,0-96.92-21.62-96.92-35.26,0-9.46,43.39-35.26,96.92-35.26,3.69,0,7.33.08,10.91.22-2.74,13.37-4.35,27.57-4.7,42.56Z"
     id="path4"
     style="fill:#bababa;fill-opacity:1" />
  <g
     id="g6">
    <path
       class="cls-2"
       d="M104.92,287.11c-52.88,0-99.92-21.4-99.92-38.26,0-12.6,46.25-38.26,99.92-38.26,3.54,0,7.25.07,11.03.22l3.53.14-.71,3.46c-2.74,13.37-4.3,27.51-4.64,42.03h0c-.21,9.21.24,18.36,1.34,27.2l.41,3.29-3.32.08c-2.84.07-5.34.1-7.64.1ZM104.92,216.59c-30.93,0-55.47,8.67-67.34,13.83-18.56,8.08-26.58,16.11-26.58,18.43,0,10.76,40.6,32.26,93.92,32.26,1.33,0,2.72-.01,4.21-.03-.86-8.1-1.2-16.42-1-24.78.32-13.62,1.69-26.93,4.08-39.61-2.48-.07-4.92-.1-7.29-.1Z"
       id="path5" />
    <path
       class="cls-2"
       d="M104.92,292.11c-52.95,0-104.92-21.43-104.92-43.26,0-13.06,25.13-25.07,32.83-28.44,12.66-5.54,38.86-14.82,72.09-14.82,3.62,0,7.39.08,11.22.23l9.42.37-1.89,9.23c-2.68,13.08-4.21,26.92-4.54,41.14-.21,8.96.23,17.87,1.3,26.46l1.1,8.78-8.84.21c-2.89.07-5.43.1-7.76.1ZM16.25,249.49c1.33,2.44,8.1,8.85,24.55,15.27,10.72,4.18,33.02,11.16,62.86,11.35-.5-6.56-.68-13.24-.52-19.92.27-11.81,1.33-23.41,3.14-34.59-.45,0-.91,0-1.35,0-30.03,0-53.83,8.41-65.34,13.42-14.8,6.44-21.48,12.31-23.33,14.48ZM15.74,250.17h0s0,0,0,0Z"
       id="path6" />
  </g>
  <path
     class="cls-1"
     d="M281.42,443.29v34.19h-56.28v-47.8c.99.4,1.98.8,2.98,1.19,15.86,6.18,32.76,10.32,50.32,12.14.99.1,1.98.2,2.98.28Z"
     id="path7" />
  <path
     class="cls-2"
     d="M260.38,474.49c.16.31.31.63.45.96.1-.33.2-.65.3-.96h-.75ZM281.42,443.29c-1-.08-1.99-.18-2.98-.28v31.48h-50.32v-43.62c-1-.39-1.99-.79-2.98-1.19-1-.41-2-.83-2.99-1.26v52.05h62.26v-36.93c-1-.08-2-.16-2.99-.25Z"
     id="path8" />
  <path
     class="cls-1"
     d="M379.24,428.18v49.3h-59.77v-34.38c1-.09,1.99-.19,2.98-.3,18.96-2.04,37.04-6.55,53.8-13.36,1-.42,2-.83,2.99-1.26Z"
     id="path9" />
  <path
     class="cls-2"
     d="M357.53,474.49c.16.31.31.63.45.96.1-.33.2-.65.3-.96h-.75ZM379.24,428.18c-.99.43-1.99.84-2.99,1.26v45.05h-53.8v-31.69c-.99.11-1.98.21-2.98.3-.99.1-1.99.18-2.99.26v37.11h65.74v-53.59c-.99.45-1.98.88-2.98,1.3Z"
     id="path10" />
  <path
     class="cls-1"
     d="M453.1,139.11c-8.64-12.12-18.77-22.65-30.12-31.6-2.72-2.14-5.51-4.2-8.37-6.16,2.06-.58,4.1-1.13,6.11-1.64.04-.01.08-.02.12-.02,3.15-.63,6.22-1.16,9.19-1.58,22.92-3.3,39.8-.53,43.47,8.71,3.31,8.34-4.84,20.24-20.4,32.29Z"
     id="path11"
     style="fill:#bababa;fill-opacity:1" />
  <g
     id="g13">
    <path
       class="cls-2"
       d="M452.47,143.39l-1.81-2.54c-8.31-11.66-18.25-22.09-29.53-30.99-2.71-2.14-5.48-4.17-8.21-6.04l-5.29-3.62,6.17-1.74c2.2-.62,4.23-1.16,6.19-1.66.1-.03.24-.06.4-.08,3.19-.64,6.29-1.17,9.22-1.58,25.53-3.68,42.55.18,46.68,10.57,3.77,9.49-3.82,22.19-21.35,35.77l-2.47,1.91ZM421.52,102.61c1.11.83,2.21,1.68,3.31,2.54,10.9,8.6,20.6,18.57,28.85,29.66,13.16-10.73,19.5-20.67,17.03-26.89-2.93-7.38-18.35-10-40.25-6.85-2.84.4-5.84.92-8.93,1.53Z"
       id="path12" />
    <path
       class="cls-2"
       d="M451.42,150.53l-4.83-6.78c-8.04-11.28-17.65-21.36-28.56-29.96-2.62-2.07-5.3-4.03-7.94-5.84l-14.11-9.67,16.46-4.63c2.26-.64,4.32-1.19,6.31-1.69.18-.05.45-.11.77-.16,3.24-.64,6.4-1.18,9.39-1.61,28.41-4.09,46.9.77,52.03,13.68,3.3,8.31,1.99,22.26-22.94,41.57l-6.58,5.1ZM433.39,105.73c7.69,6.62,14.73,13.94,21.04,21.86,10.02-9.07,12.55-15.51,11.63-17.82-1.23-3.1-11.19-6.8-32.68-4.04Z"
       id="path13" />
  </g>
  <path
     class="cls-3"
     d="M420.72,99.71c-2.01.51-4.05,1.06-6.11,1.64-.12-.08-.23-.16-.35-.24,2.19-.51,4.34-.98,6.46-1.4Z"
     id="path14" />
  <path
     class="cls-2"
     d="M414.09,104.61l-7.27-4.85,6.75-1.57c2.36-.55,4.51-1.02,6.56-1.42l1.32,5.85c-1.91.48-3.88,1.01-6.04,1.62l-1.33.37Z"
     id="path15" />
  <path
     class="cls-1"
     d="M417.51,54.13c-14.05,2.06-29.78,5.98-45.25,12.12-6.69,2.66-13.09,5.5-19.13,8.47-17.19-4.05-35.42-6.05-54.3-6.05-7.61,0-15.1.37-22.45,1.11,12.01-14.78,33-30.88,58.94-43.91,46.74-23.47,96.52-20.41,100.79-10.33.89,10.32-5.4,24.26-18.6,38.59Z"
     id="path16"
     style="fill:#bababa;fill-opacity:1" />
  <g
     id="g18">
    <path
       class="cls-2"
       d="M353.49,77.89l-1.05-.25c-16.82-3.96-34.85-5.97-53.61-5.97-7.48,0-14.93.37-22.15,1.09l-7.18.72,4.55-5.6c12.74-15.68,34.58-31.97,59.92-44.7,39.75-19.96,81.28-20.79,96.84-15.07,4.25,1.56,6.96,3.67,8.06,6.25l.19.44.04.47c.99,11.53-6.07,26.43-19.38,40.88l-.72.78-1.05.15c-15.04,2.21-30.45,6.33-44.58,11.94-6.52,2.59-12.89,5.41-18.91,8.37l-.96.47ZM298.83,65.67c18.83,0,36.98,1.98,53.94,5.89,5.88-2.86,12.06-5.58,18.38-8.09,14.22-5.64,29.71-9.83,44.86-12.14,11.48-12.69,17.68-25.34,17.15-34.93-.52-.72-1.89-1.71-4.42-2.64-14.57-5.36-53.91-4.36-92.08,14.8-21.62,10.86-40.56,24.31-53.12,37.62,5.04-.33,10.16-.5,15.29-.5Z"
       id="path17" />
    <path
       class="cls-2"
       d="M354.09,83.16l-2.79-.66c-16.44-3.87-34.09-5.84-52.47-5.84-7.31,0-14.6.36-21.65,1.07l-19.14,1.93,12.13-14.93c13.17-16.21,35.61-32.98,61.56-46.01C373.25-2.13,415.68-2.78,432.54,3.43c5.6,2.06,9.28,5.09,10.94,8.99l.5,1.17.11,1.26c1.11,12.93-6.43,29.22-20.69,44.7l-1.92,2.08-2.8.41c-14.66,2.15-29.69,6.18-43.46,11.64-6.4,2.54-12.64,5.31-18.55,8.21l-2.57,1.27ZM298.83,60.67c18.57,0,36.51,1.89,53.34,5.62,5.51-2.63,11.27-5.15,17.13-7.48,13.99-5.55,29.22-9.74,44.16-12.16,8.78-10.04,14.1-20.14,14.68-27.75-.3-.14-.68-.3-1.13-.46-11.89-4.37-49.94-4.59-88.1,14.58-16.24,8.16-30.88,17.74-42.35,27.66.76,0,1.52-.01,2.27-.01ZM429.34,19.59h0Z"
       id="path18" />
  </g>
  <path
     class="cls-1"
     d="M466.36,60.89c0,8.34-9.16,21.65-26.14,34.91-6.08.87-12.58,2.16-19.38,3.89-.04,0-.08.01-.12.02-2.01.51-4.05,1.06-6.11,1.64-.12-.08-.23-.16-.35-.24-10.44-7.15-21.76-13.09-33.81-17.86-8.75-3.47-17.88-6.31-27.32-8.53,6.04-2.97,12.44-5.81,19.13-8.47,15.47-6.14,31.2-10.06,45.25-12.12,27.67-4.06,48.86-.9,48.85,6.76Z"
     id="path19"
     style="fill:#bababa;fill-opacity:1" />
  <g
     id="g21">
    <path
       class="cls-2"
       d="M414.09,104.61l-1.5-1.01c-10.12-6.93-21.3-12.84-33.25-17.57-8.52-3.38-17.57-6.2-26.9-8.4l-8.15-1.92,7.52-3.7c6.17-3.03,12.67-5.91,19.34-8.56,14.55-5.78,30.43-10.03,45.92-12.3,23.33-3.42,42.72-1.9,49.39,3.87,2.39,2.07,2.89,4.33,2.89,5.86,0,9.84-10.46,24.12-27.29,37.27l-.63.49-.79.11c-6.1.87-12.51,2.16-19.07,3.83l-.41.09c-1.82.47-3.71.97-5.75,1.55l-1.33.37ZM421.47,102.62s0,0,0,0c0,0,0,0,0,0ZM361.94,73.88c6.75,1.88,13.32,4.08,19.62,6.58,12.04,4.77,23.34,10.69,33.59,17.62,1.69-.47,3.28-.89,4.83-1.28.08-.02.17-.04.29-.06,6.42-1.63,12.71-2.9,18.73-3.79,16.82-13.29,24.36-25.65,24.36-32.06h0c0-.15,0-.61-.82-1.32-4.43-3.83-21.17-5.91-44.6-2.48-15.04,2.21-30.45,6.33-44.58,11.94-3.88,1.54-7.7,3.16-11.43,4.85Z"
       id="path20" />
    <path
       class="cls-2"
       d="M413.23,110.05l-3.42-2.29c-9.85-6.74-20.7-12.48-32.3-17.07-8.29-3.29-17.11-6.04-26.21-8.18l-21.74-5.11,20.04-9.85c6.29-3.09,12.92-6.03,19.7-8.72,14.91-5.92,31.17-10.27,47.04-12.6,25.46-3.74,45.42-1.85,53.39,5.04,2.98,2.58,4.62,6.01,4.62,9.65,0,11.52-10.92,26.92-29.22,41.2l-1.68,1.31-2.11.3c-5.92.85-12.16,2.1-18.54,3.72l-.46.11c-1.76.45-3.58.94-5.57,1.5l-3.55,1ZM376.43,73.21c2.36.83,4.68,1.7,6.97,2.61,11.63,4.6,22.6,10.27,32.63,16.85.93-.25,1.83-.48,2.73-.71.1-.03.25-.06.43-.1,6.05-1.53,12.01-2.76,17.74-3.65,13.66-11.02,19.84-20.68,21.16-25.54-4.47-1.96-18.29-3.72-39.41-.62-14.23,2.09-28.8,5.94-42.24,11.16Z"
       id="path21" />
  </g>
  <path
     class="cls-1"
     d="M485.79,256.77c0,8.56-.45,16.88-1.33,24.94-7.65,70.05-47.53,120.76-102.97,145.57-.99.45-1.98.88-2.98,1.3-.99.43-1.99.84-2.99,1.26-16.76,6.81-34.84,11.32-53.8,13.36-.99.11-1.98.21-2.98.3-.99.1-1.99.18-2.99.26-5.81.47-11.7.7-17.65.7-4.85,0-9.66-.18-14.42-.52-1-.08-2-.16-2.99-.25-1-.08-1.99-.18-2.98-.28-17.56-1.82-34.46-5.96-50.32-12.14-1-.39-1.99-.79-2.98-1.19-1-.41-2-.83-2.99-1.26-58.33-25.03-101.48-78.12-109.66-144.41-1.12-8.98-1.58-18.21-1.36-27.64.35-14.99,1.96-29.19,4.7-42.56,17.37-84.79,80.45-136.02,160.55-144.03,7.35-.74,14.84-1.11,22.45-1.11,18.88,0,37.11,2,54.3,6.05,9.44,2.22,18.57,5.06,27.32,8.53,12.05,4.77,23.37,10.71,33.81,17.86.12.08.23.16.35.24,2.86,1.96,5.65,4.02,8.37,6.16,11.35,8.95,21.48,19.48,30.12,31.6.8,1.11,1.58,2.23,2.35,3.36,13.41,19.86,23,43.82,27.73,71.98,2.19,13.06,3.34,27.03,3.34,41.92Z"
     id="path22"
     style="fill:#bababa;fill-opacity:1" />
  <g
     id="g24">
    <path
       class="cls-2"
       d="M298.1,447.46c-4.82,0-9.74-.18-14.63-.53-1.03-.08-2.05-.16-3.05-.25-.94-.07-1.92-.17-2.89-.27h-.12c-17.6-1.84-34.8-5.99-51.11-12.34-.94-.37-1.87-.74-2.8-1.11l-.22-.09c-1.04-.42-2.05-.85-3.06-1.29-29.58-12.69-55.46-32.63-74.81-57.65-19.95-25.78-32.61-56.61-36.63-89.15-1.14-9.13-1.6-18.58-1.38-28.08.35-14.88,1.95-29.37,4.76-43.09,8.5-41.48,28.46-76.92,57.72-102.47,28.26-24.68,64.73-39.87,105.47-43.95,7.41-.75,15.07-1.12,22.75-1.12,19.22,0,37.72,2.06,54.99,6.13,9.62,2.26,18.95,5.18,27.74,8.66,12.36,4.89,23.94,11.01,34.4,18.17l.32.22c2.87,1.96,5.74,4.08,8.56,6.3,11.73,9.25,22.06,20.09,30.71,32.22.81,1.12,1.6,2.26,2.39,3.41,14.06,20.83,23.55,45.44,28.21,73.17,2.24,13.38,3.38,27.65,3.38,42.42,0,8.57-.45,17.07-1.35,25.27-7.38,67.56-45.55,121.5-104.73,147.98-1,.46-2.02.9-3.04,1.33-.68.3-1.4.6-2.13.9l-.86.36c-17.11,6.95-35.48,11.52-54.64,13.58-1,.11-2.01.21-3.03.31-.98.1-2,.18-3.02.26-5.82.47-11.84.71-17.89.71ZM298.1,72.07c-7.48,0-14.93.37-22.15,1.09-82.4,8.24-141.43,61.19-157.91,141.65-2.74,13.37-4.3,27.51-4.64,42.03-.21,9.21.24,18.36,1.34,27.2,7.81,63.3,48.13,116.39,107.87,142.02.98.43,1.96.84,2.94,1.24l.2.08c.91.37,1.81.73,2.73,1.09,15.81,6.16,32.48,10.18,49.54,11.95h.11c.93.1,1.86.2,2.8.27,1.02.09,2,.17,2.99.25,10.69.76,21.42.64,31.59-.18.98-.08,1.96-.16,2.93-.25,1.01-.09,1.98-.19,2.95-.3,18.61-2,36.44-6.43,53-13.16l.84-.35c.7-.29,1.39-.58,2.08-.88,1.01-.42,1.97-.84,2.94-1.28,57.2-25.6,94.09-77.77,101.23-143.16.87-7.98,1.31-16.26,1.31-24.61,0-14.44-1.11-28.37-3.3-41.42-4.51-26.88-13.68-50.7-27.26-70.8-.75-1.1-1.51-2.2-2.3-3.29-8.32-11.68-18.26-22.1-29.54-31-2.72-2.14-5.48-4.17-8.21-6.04l-.32-.22c-10.12-6.93-21.3-12.84-33.25-17.57-8.52-3.38-17.57-6.2-26.9-8.4-16.81-3.96-34.85-5.97-53.61-5.97Z"
       id="path23" />
    <path
       class="cls-2"
       d="M298.1,452.46c-4.93,0-9.98-.18-14.99-.54-1.09-.09-2.13-.17-3.15-.26-.92-.07-1.92-.17-2.93-.27h-.11c-18.06-1.88-35.7-6.14-52.43-12.66-.9-.35-1.8-.71-2.69-1.07l-.38-.15c-1.09-.45-2.14-.89-3.17-1.34-30.35-13.02-56.9-33.49-76.78-59.18-20.5-26.49-33.51-58.16-37.64-91.59-1.17-9.37-1.65-19.06-1.42-28.81.35-15.17,1.99-29.97,4.86-43.98,8.72-42.57,29.24-78.95,59.33-105.23,29.05-25.36,66.49-40.98,108.26-45.16,7.58-.76,15.4-1.15,23.25-1.15,19.61,0,38.5,2.11,56.14,6.26,9.85,2.32,19.42,5.3,28.44,8.88,12.71,5.03,24.61,11.32,35.38,18.7l.33.23c2.94,2.01,5.91,4.2,8.82,6.49,12.11,9.55,22.77,20.73,31.69,33.24.82,1.13,1.64,2.31,2.45,3.5,14.48,21.44,24.23,46.72,29.01,75.16,2.29,13.65,3.45,28.2,3.45,43.25,0,8.76-.46,17.44-1.38,25.81-7.58,69.37-46.81,124.78-107.66,152-1.02.46-2.08.92-3.15,1.37-.65.28-1.39.59-2.14.91l-.86.36c-17.57,7.14-36.41,11.82-56.03,13.94-1.02.11-2.06.22-3.12.31-.96.1-2.01.18-3.07.27-5.96.48-12.11.73-18.29.73ZM298.1,77.07c-7.31,0-14.6.36-21.65,1.07-80.11,8.01-137.5,59.48-153.51,137.68-2.68,13.08-4.21,26.92-4.54,41.14-.21,8.96.23,17.87,1.3,26.46,7.59,61.52,46.8,113.13,104.88,138.05.97.42,1.92.82,2.87,1.21l.37.15c.82.33,1.65.67,2.48.99,15.4,6,31.63,9.92,48.24,11.64l.31.03c.82.08,1.64.17,2.47.23,1.06.1,2.02.17,2.99.25,10.05.72,20.42.66,30.79-.18h.11c.91-.08,1.82-.16,2.72-.25,1.03-.09,1.97-.19,2.91-.29,18.16-1.95,35.54-6.27,51.67-12.82l.79-.33c.7-.29,1.36-.57,2.02-.85,1.02-.43,1.94-.83,2.87-1.25,55.55-24.86,91.38-75.57,98.32-139.15.85-7.79,1.28-15.89,1.28-24.07,0-14.16-1.09-27.82-3.23-40.6-4.39-26.17-13.3-49.32-26.47-68.83-.71-1.04-1.45-2.11-2.21-3.16-8.06-11.31-17.67-21.39-28.58-29.99-2.63-2.07-5.3-4.03-7.94-5.84l-.32-.22c-9.8-6.71-20.66-12.45-32.26-17.04-8.29-3.29-17.11-6.04-26.21-8.18-16.44-3.87-34.09-5.84-52.47-5.84Z"
       id="path24" />
  </g>
  <ellipse
     class="cls-1"
     cx="221.92"
     cy="210.59"
     rx="63.03"
     ry="77.91"
     transform="translate(-62.06 96.79) rotate(-21.66)"
     id="ellipse24" />
  <g
     id="g26">
    <path
       class="cls-2"
       d="M231.45,289.64c-28.51,0-57.64-21.28-70.9-54.68-7.93-19.98-9.09-41.29-3.25-60.01,5.91-18.95,18.25-33,34.76-39.55,16.51-6.56,35.12-4.81,52.42,4.93,17.09,9.62,30.88,25.91,38.81,45.89,16.47,41.46,2.33,86.13-31.5,99.57-6.58,2.62-13.44,3.86-20.33,3.86ZM212.52,137.51c-6.27,0-12.42,1.15-18.25,3.47-14.79,5.87-25.89,18.58-31.24,35.76-5.43,17.42-4.33,37.31,3.1,56.01,12.33,31.04,39.17,50.9,65.26,50.9,6.17,0,12.3-1.11,18.19-3.45,30.76-12.22,43.39-53.39,28.14-91.78-7.43-18.7-20.28-33.93-36.18-42.88-9.5-5.34-19.4-8.05-29.01-8.05Z"
       id="path25" />
    <path
       class="cls-2"
       d="M231.45,294.64c-31.45,0-61.81-23.24-75.55-57.83-8.36-21.04-9.56-43.53-3.38-63.35,6.37-20.42,19.75-35.59,37.68-42.71,17.94-7.12,38.08-5.27,56.72,5.22,18.09,10.18,32.65,27.36,41.01,48.4,17.48,44.02,2.1,91.6-34.31,106.06-7.04,2.8-14.5,4.21-22.18,4.21ZM212.52,142.51c-5.68,0-11.21,1.05-16.41,3.12-13.36,5.31-23.42,16.89-28.32,32.6-5.09,16.33-4.03,35.04,2.97,52.68,11.17,28.11,36.09,47.75,60.61,47.75,5.67,0,11.17-1.04,16.34-3.1,28.2-11.2,39.57-49.46,25.34-85.28-7.01-17.64-19.08-31.98-33.98-40.36-8.73-4.91-17.67-7.41-26.56-7.41Z"
       id="path26" />
  </g>
  <path
     class="cls-1"
     d="M280.33,173.88c-11.81-1.37-41.54-3.21-73.69,12.9-27.92,13.99-43.49,34.43-50.14,44.4-40.01-98.54,74.63-157.09,123.83-57.3Z"
     id="path27"
     style="fill:#bababa;fill-opacity:1" />
  <g
     id="g29">
    <path
       class="cls-2"
       d="M155.86,237.56l-2.13-5.25c-9.75-24.02-11.2-47.42-4.17-67.65,6.34-18.28,19.08-32.49,35.85-40.02,16.27-7.3,34.5-7.35,51.33-.12,18.76,8.05,34.77,24.66,46.29,48.04l2.44,4.94-5.47-.63c-14.21-1.65-42.46-2.2-72,12.6-24.92,12.49-40.39,30.48-48.99,43.38l-3.14,4.72ZM211.06,125.14c-8.17,0-16.05,1.76-23.2,4.97-28.01,12.57-46.81,48.79-30.57,94.7,9.45-12.93,24.82-29.09,48.01-40.71,26.54-13.3,51.81-15.06,69.84-13.73-17.5-32.22-41.86-45.23-64.08-45.23Z"
       id="path28" />
    <path
       class="cls-2"
       d="M154.78,248.19l-5.69-14.01c-10.22-25.16-11.69-49.78-4.26-71.17,6.8-19.59,20.48-34.84,38.52-42.94,17.56-7.88,37.22-7.94,55.35-.16,19.87,8.53,36.75,25.96,48.81,50.42l6.5,13.18-14.59-1.69c-13.66-1.58-40.8-2.11-69.19,12.11-23.94,12-38.81,29.29-47.06,41.68l-8.38,12.58ZM211.06,130.14c-7.34,0-14.46,1.52-21.15,4.53-22.95,10.3-41.22,39.18-30.65,79.56,9.55-11.3,23.84-24.6,43.8-34.6,23.55-11.8,46.13-14.73,63.12-14.62-19.34-30.12-42.48-34.87-55.12-34.87Z"
       id="path29" />
  </g>
  <polygon
     class="cls-2"
     points="205.73 200.86 195.68 207.32 201.61 215.1 184.5 229.63 177.77 217.05 171.74 222.86 192.51 257.9 199.38 252.37 206.63 261.5 224.7 253.66 219.81 243.68 228.31 238.19 205.73 200.86"
     id="polygon29" />
  <path
     class="cls-1"
     d="M232.96,503.16c.78-.33,1.88-.86,3.59-1.21,1.64-.34,3.04-.34,3.97-.29,2.81-4.49,4.55-10.51,4.55-17.15,0-13.86-7.5-25.09-16.76-25.09s-16.76,11.24-16.76,25.09c0,6.73,1.78,12.83,4.66,17.34,3.6,2.24,6.71,2.63,8.33,2.71,4.55.21,8.43-1.4,8.43-1.4Z"
     id="path30" />
  <path
     class="cls-2"
     d="M225.34,507.57c-.31,0-.63,0-.95-.02-3.31-.15-6.69-1.24-9.76-3.15l-.58-.36-.37-.57c-3.31-5.18-5.13-11.91-5.13-18.95,0-15.75,8.67-28.08,19.75-28.08s19.75,12.33,19.75,28.08c0,6.93-1.78,13.58-5,18.73l-.94,1.5-1.76-.1c-1.08-.07-2.16.01-3.2.23-1.18.24-1.98.58-2.68.89l-.36.15c-.17.07-4.03,1.65-8.77,1.65ZM218.36,499.67c2.05,1.16,4.21,1.82,6.31,1.92,3.72.17,7-1.12,7.15-1.18l.3-.13c.82-.35,2.06-.88,3.84-1.25.94-.19,1.89-.31,2.85-.35,2.12-4,3.28-8.96,3.28-14.15,0-11.98-6.31-22.11-13.77-22.11s-13.77,10.12-13.77,22.11c0,5.65,1.36,10.99,3.83,15.14Z"
     id="path31" />
  <path
     class="cls-1"
     d="M277.21,503.63c1.39.01,2.82-.07,4.45-.47,1.7-.41,3.02-1.02,3.9-1.49,2.81-4.49,4.55-10.51,4.55-17.15,0-13.86-7.5-25.09-16.76-25.09s-16.76,11.24-16.76,25.09c0,6.73,1.78,12.83,4.66,17.34.53.09,10.46,1.72,15.97,1.77Z"
     id="path32" />
  <path
     class="cls-2"
     d="M277.5,506.62c-.11,0-.21,0-.31,0h0c-5.46-.06-14.64-1.52-16.42-1.81l-1.31-.22-.72-1.12c-3.31-5.18-5.13-11.9-5.13-18.95,0-15.75,8.67-28.08,19.75-28.08s19.75,12.33,19.75,28.08c0,6.93-1.78,13.58-5,18.73l-.42.68-.7.37c-1.46.78-3.01,1.37-4.59,1.76-1.94.48-3.6.56-4.87.56ZM277.24,500.64c1.03.03,2.26-.03,3.71-.38.85-.21,1.69-.5,2.49-.87,2.37-4.11,3.67-9.36,3.67-14.86,0-11.98-6.31-22.11-13.77-22.11s-13.77,10.12-13.77,22.11c0,5.41,1.24,10.54,3.52,14.61,3.01.47,9.98,1.47,14.15,1.52h0Z"
     id="path33" />
  <path
     class="cls-1"
     d="M254.03,507.38c1.55-.13,2.81-.31,4.21-.7,1.55-.43,2.78-.97,3.61-1.38,2.81-4.49,4.55-10.51,4.55-17.15,0-13.86-7.5-25.09-16.76-25.09s-16.76,11.24-16.76,25.09c0,6.73,1.78,12.83,4.66,17.34.81.31,2.15.78,3.84,1.19,5.34,1.31,9.65.95,12.64.7Z"
     id="path34" />
  <path
     class="cls-2"
     d="M249.34,510.6c-2.48,0-5.39-.23-8.66-1.03-1.43-.35-2.84-.79-4.19-1.3l-.92-.35-.53-.83c-3.31-5.18-5.13-11.9-5.13-18.95,0-15.75,8.67-28.08,19.75-28.08s19.75,12.33,19.75,28.08c0,6.93-1.78,13.59-5,18.73l-.45.72-.76.37c-1.33.66-2.72,1.19-4.14,1.58-1.49.41-2.87.64-4.77.8l-.25-2.98.25,2.98-.25-2.98.24,2.98c-1.36.11-3.02.25-4.94.25ZM239.55,503.03c.83.28,1.69.53,2.55.75,4.86,1.19,8.81.87,11.68.63h0c1.52-.13,2.55-.29,3.66-.6.79-.22,1.57-.5,2.32-.82,2.36-4.11,3.65-9.34,3.65-14.83,0-11.98-6.31-22.11-13.77-22.11s-13.77,10.12-13.77,22.11c0,5.53,1.3,10.77,3.68,14.88Z"
     id="path35" />
  <path
     class="cls-1"
     d="M330.11,503.16c.78-.33,1.88-.86,3.59-1.21,1.64-.34,3.04-.34,3.97-.29,2.81-4.49,4.55-10.51,4.55-17.15,0-13.86-7.5-25.09-16.76-25.09s-16.76,11.24-16.76,25.09c0,6.73,1.78,12.83,4.66,17.34,3.6,2.24,6.71,2.63,8.33,2.71,4.55.21,8.43-1.4,8.43-1.4Z"
     id="path36" />
  <path
     class="cls-2"
     d="M322.49,507.57c-.31,0-.63,0-.95-.02-3.31-.15-6.69-1.24-9.76-3.15l-.58-.36-.37-.57c-3.31-5.18-5.13-11.9-5.13-18.95,0-15.75,8.67-28.08,19.75-28.08s19.75,12.33,19.75,28.08c0,6.93-1.78,13.58-5,18.73l-.94,1.5-1.76-.1c-1.08-.07-2.16.01-3.2.23-1.18.24-1.98.58-2.68.89l-.36.15c-.17.07-4.03,1.65-8.77,1.65ZM315.51,499.67c2.05,1.16,4.21,1.82,6.31,1.92,3.72.16,6.99-1.12,7.15-1.18l.3-.13c.82-.35,2.06-.88,3.84-1.25.94-.19,1.89-.31,2.85-.35,2.12-4,3.28-8.96,3.28-14.15,0-11.98-6.31-22.11-13.77-22.11s-13.77,10.12-13.77,22.11c0,5.65,1.36,10.99,3.83,15.14Z"
     id="path37" />
  <path
     class="cls-1"
     d="M374.36,503.63c1.39.01,2.82-.07,4.45-.47,1.7-.41,3.02-1.02,3.9-1.49,2.81-4.49,4.55-10.51,4.55-17.15,0-13.86-7.5-25.09-16.76-25.09s-16.76,11.24-16.76,25.09c0,6.73,1.78,12.83,4.66,17.34.53.09,10.46,1.72,15.97,1.77Z"
     id="path38" />
  <path
     class="cls-2"
     d="M374.65,506.62c-.11,0-.21,0-.31,0h0c-5.46-.06-14.64-1.52-16.42-1.81l-1.31-.22-.72-1.12c-3.31-5.18-5.13-11.91-5.13-18.95,0-15.75,8.67-28.08,19.75-28.08s19.75,12.33,19.75,28.08c0,6.93-1.78,13.59-5,18.73l-.42.68-.7.37c-1.46.78-3.01,1.37-4.59,1.76-1.95.48-3.6.56-4.87.56ZM374.39,500.64c1,.02,2.25-.03,3.71-.38.85-.21,1.69-.5,2.49-.87,2.37-4.11,3.67-9.36,3.67-14.86,0-11.98-6.31-22.11-13.77-22.11s-13.77,10.12-13.77,22.11c0,5.41,1.24,10.54,3.52,14.61,3.01.47,9.98,1.47,14.15,1.52h0Z"
     id="path39" />
  <path
     class="cls-1"
     d="M351.18,507.38c1.55-.13,2.81-.31,4.21-.7,1.55-.43,2.78-.97,3.61-1.38,2.81-4.49,4.55-10.51,4.55-17.15,0-13.86-7.5-25.09-16.76-25.09s-16.76,11.24-16.76,25.09c0,6.73,1.78,12.83,4.66,17.34.81.31,2.15.78,3.84,1.19,5.34,1.31,9.65.95,12.64.7Z"
     id="path40" />
  <path
     class="cls-2"
     d="M346.49,510.6c-2.48,0-5.39-.23-8.66-1.03-1.43-.35-2.84-.79-4.19-1.3l-.92-.35-.53-.83c-3.31-5.18-5.13-11.9-5.13-18.95,0-15.75,8.67-28.08,19.75-28.08s19.75,12.33,19.75,28.08c0,6.93-1.78,13.59-5,18.73l-.45.72-.76.37c-1.32.66-2.72,1.19-4.14,1.58-1.49.41-2.87.64-4.77.8l-.25-2.98.25,2.98-.25-2.98.24,2.98c-1.36.11-3.02.25-4.94.25ZM336.7,503.03c.83.28,1.69.53,2.55.75,4.86,1.19,8.8.87,11.68.63h0c1.52-.13,2.55-.29,3.66-.6.79-.22,1.57-.5,2.32-.82,2.36-4.11,3.65-9.34,3.65-14.83,0-11.98-6.31-22.11-13.77-22.11s-13.77,10.12-13.77,22.11c0,5.53,1.3,10.77,3.68,14.88Z"
     id="path41" />
  <path
     class="cls-1"
     d="M375.17,310.59c-14.6,40.85-86.58,46.21-112.91,25.79-50.31-39.02-.16-62.03,46.49-61.88,36.68,0,73.13,17.32,66.42,36.1Z"
     id="path42" />
  <g
     id="g44">
    <path
       class="cls-2"
       d="M304.92,351.02c-17.67,0-34.18-4.27-44.5-12.27-18.08-14.03-25.15-27.24-21.01-39.27,6.63-19.25,40.26-27.98,68.9-27.98.15,0,.3,0,.45,0,28.8,0,56.79,10.06,66.56,23.93,3.67,5.21,4.6,10.8,2.68,16.18h0c-5.84,16.34-20.97,28.82-42.61,35.13-9.9,2.89-20.37,4.28-30.47,4.28ZM308.29,277.49c-31.38,0-58.5,10.25-63.21,23.93-4,11.63,7.49,25.05,19.02,32.58,21.36,13.96,44.5,14.3,69.61,6.97,19.74-5.76,33.46-16.91,38.64-31.39,1.27-3.55.64-7.05-1.93-10.7-8.45-11.99-35.54-21.38-61.67-21.38-.15,0-.31,0-.46,0Z"
       id="path43" />
    <path
       class="cls-2"
       d="M304.92,356.02c-19.31,0-36.65-4.85-47.56-13.32-19.96-15.48-27.59-30.57-22.68-44.85,7.45-21.66,42.35-31.35,73.63-31.35h.45c30.79,0,59.84,10.71,70.65,26.05,4.58,6.5,5.75,13.87,3.3,20.74-6.4,17.89-22.7,31.48-45.91,38.25-10.05,2.93-21.07,4.48-31.87,4.48ZM308.29,282.49c-31.75,0-55.08,10.67-58.48,20.56-2.89,8.38,6.38,19.81,17.02,26.77,18.38,12.01,39.18,14.03,65.48,6.35,18.16-5.3,30.71-15.34,35.33-28.27.5-1.4.74-3.23-1.31-6.14-7.48-10.62-33.31-19.26-57.58-19.26h-.46Z"
       id="path44" />
  </g>
  <path
     class="cls-1"
     d="M375.06,301.44c-3.77,14.98-29.67,23.24-43.7,27.17-7.26,1.88-14.61,3.3-22,3.29-12.24-.17-24.2-3.19-36.37-7.3-37.94-13.16-43.7-35.8.91-45.46,24.59-5.2,56.19-4.7,79.35,2.47,12.36,4.25,22.78,9.41,21.83,19.71l-.02.13Z"
     id="path45" />
  <path
     class="cls-2"
     d="M309.41,334.89h-.05c-11.01-.15-22.51-2.45-37.33-7.46-21.33-7.4-33.19-17.76-32.54-28.44.43-7.16,6.64-16.92,33.78-22.79,26.24-5.55,57.98-4.55,80.88,2.53,13.15,4.52,25.08,10.39,23.94,22.85l-.1.58c-4,15.91-28.05,24.35-45.8,29.32-9.08,2.36-16.09,3.4-22.77,3.4ZM308.93,278.69c-11.8,0-23.7,1.11-34.42,3.38-18.02,3.9-28.61,10.21-29.04,17.29-.46,7.56,10.46,16.14,28.5,22.4,14.18,4.79,25.12,7,35.43,7.14h.04c6.11,0,12.66-.99,21.17-3.19,25-7,38.98-15.36,41.5-24.83.52-6.73-5.06-11.35-19.84-16.43-12.28-3.8-27.72-5.75-43.34-5.75Z"
     id="path46" />
  <ellipse
     class="cls-1"
     cx="376.68"
     cy="204.95"
     rx="63.03"
     ry="77.91"
     transform="translate(-49.05 153.52) rotate(-21.66)"
     id="ellipse46" />
  <g
     id="g48">
    <path
       class="cls-2"
       d="M386.06,284.05c-10.63,0-21.52-2.97-31.94-8.83-17.09-9.62-30.88-25.91-38.81-45.89s-9.09-41.29-3.25-60.01c5.91-18.95,18.25-33,34.76-39.55,33.84-13.44,74.77,9.36,91.23,50.82h0c16.47,41.46,2.33,86.13-31.5,99.57-6.56,2.61-13.46,3.9-20.48,3.9ZM367.21,131.89c-6.17,0-12.3,1.11-18.19,3.45-14.79,5.87-25.89,18.58-31.24,35.76-5.43,17.42-4.33,37.31,3.1,56.01,7.43,18.7,20.28,33.93,36.18,42.88,15.69,8.83,32.48,10.45,47.27,4.58,30.76-12.22,43.39-53.39,28.14-91.78-12.33-31.04-39.17-50.9-65.26-50.9Z"
       id="path47" />
    <path
       class="cls-2"
       d="M386.06,289.05c-11.49,0-23.38-3.27-34.39-9.47-18.09-10.17-32.65-27.36-41.01-48.4s-9.56-43.53-3.38-63.35c6.37-20.42,19.75-35.59,37.68-42.71,17.79-7.07,37.82-5.26,56.41,5.1,18.25,10.17,32.93,27.4,41.32,48.52,17.49,44.02,2.1,91.6-34.31,106.06-7.11,2.82-14.62,4.25-22.33,4.25ZM367.21,136.89c-5.67,0-11.17,1.04-16.34,3.1-13.36,5.31-23.42,16.89-28.32,32.6-5.09,16.33-4.03,35.04,2.97,52.68,7.01,17.64,19.08,31.98,33.98,40.36,14.35,8.07,29.61,9.6,42.97,4.29,28.2-11.2,39.57-49.46,25.34-85.28-11.17-28.11-36.09-47.75-60.61-47.75Z"
       id="path48" />
  </g>
  <path
     class="cls-1"
     d="M435.1,168.24c-12.49-1.4-50.29-3.97-86.63,19.74-18.92,12.34-30.6,27.35-37.2,37.56-40.01-98.54,74.63-157.09,123.83-57.3Z"
     id="path49"
     style="fill:#bababa;fill-opacity:1" />
  <g
     id="g51">
    <path
       class="cls-2"
       d="M310.66,232.01l-2.17-5.34c-9.75-24.02-11.2-47.42-4.17-67.65,6.34-18.28,19.08-32.49,35.85-40.02,16.27-7.3,34.5-7.35,51.33-.12,18.76,8.05,34.77,24.66,46.29,48.04l2.42,4.92-5.45-.61c-17.57-1.97-51.93-2.08-84.65,19.27-14.48,9.44-26.7,21.78-36.32,36.68l-3.13,4.84ZM365.82,119.51c-8.17,0-16.05,1.76-23.2,4.97-27.99,12.56-46.78,48.74-30.6,94.6,9.53-13.46,21.22-24.74,34.81-33.61,31.13-20.31,63.62-22.09,83.09-20.71-17.5-32.24-41.87-45.25-64.09-45.25Z"
       id="path50" />
    <path
       class="cls-2"
       d="M309.64,242.8l-5.79-14.25c-10.22-25.16-11.69-49.78-4.26-71.17,6.8-19.59,20.48-34.84,38.52-42.94,17.56-7.88,37.22-7.94,55.35-.16,19.87,8.53,36.75,25.96,48.81,50.42l6.47,13.11-14.53-1.63c-16.9-1.89-49.95-2.01-81.37,18.49-13.89,9.06-25.61,20.9-34.86,35.2l-8.35,12.91ZM365.82,124.51c-7.34,0-14.46,1.52-21.15,4.53-22.89,10.27-41.14,39.04-30.72,79.28,8.67-10.55,18.78-19.62,30.15-27.04,27.35-17.84,55.55-22.07,76.86-21.88-19.35-30.14-42.49-34.89-55.13-34.89Z"
       id="path51" />
  </g>
  <polygon
     class="cls-2"
     points="361.44 195.22 351.4 201.68 357.33 209.46 340.22 224 333.49 211.42 327.46 217.22 348.23 252.26 355.09 246.73 362.35 255.86 380.42 248.03 375.53 238.04 384.03 232.55 361.44 195.22"
     id="polygon51" />
  <path
     style="opacity:0;fill:#bababa;fill-opacity:1;stroke-width:0.577602"
     d="m 346.84989,64.877623 c -11.89151,-2.329677 -26.88895,-3.857017 -45.87935,-4.672357 l -3.13682,-0.134677 4.09575,-3.304192 c 5.25958,-4.243102 16.81235,-12.092601 23.83795,-16.196632 20.68578,-12.083663 39.87496,-19.112766 62.0922,-22.744711 12.01898,-1.964792 36.13797,-1.256206 39.19429,1.151479 1.85953,1.464888 -1.93627,10.988034 -7.69112,19.295961 -5.62508,8.120573 -5.23478,7.835105 -12.75799,9.331346 -17.3068,3.442032 -32.79843,8.483061 -50.25636,16.353588 l -4.30013,1.938621 z"
     id="path53" />
  <path
     style="opacity:0;fill:#bababa;fill-opacity:1;stroke-width:0.577602"
     d="m 410.96369,89.158999 c -6.54757,-4.073037 -18.46503,-10.016613 -26.4924,-13.212508 -3.76966,-1.500798 -6.62879,-2.864072 -6.35362,-3.029499 1.49743,-0.900207 19.35506,-6.295061 25.0484,-7.567209 14.62762,-3.268473 24.46778,-4.459311 36.65987,-4.436509 10.93126,0.02045 17.6347,0.992487 17.6347,2.557146 0,1.256439 -4.19609,7.691641 -7.9097,12.130461 -1.96772,2.351993 -5.63591,6.090041 -8.15153,8.306772 -4.29485,3.784571 -4.81651,4.071596 -8.55196,4.705449 -2.18795,0.371265 -6.6631,1.313884 -9.94476,2.094708 -3.28166,0.780824 -6.27075,1.398524 -6.64242,1.372666 -0.37167,-0.02586 -2.75513,-1.340522 -5.29658,-2.921477 z"
     id="path54" />
  <path
     style="opacity:0;fill:#bababa;fill-opacity:1;stroke-width:0.577602"
     d="m 317.30943,500.26987 c -2.15511,-0.97988 -4.00354,-5.24086 -4.99931,-11.52431 -1.50861,-9.51953 2.45402,-20.81311 8.5579,-24.39022 3.32406,-1.94803 6.28165,-1.85268 9.69594,0.3126 2.70812,1.71744 3.23456,2.50977 2.1237,3.19632 -1.11175,0.6871 -3.53132,6.17314 -4.64762,10.53782 -1.33728,5.2287 -1.46328,13.32267 -0.28536,18.33072 0.44771,1.90346 0.70393,3.57093 0.56938,3.70548 -0.71764,0.71764 -9.35641,0.58555 -11.01463,-0.16841 z"
     id="path55" />
  <path
     style="opacity:0;fill:#bababa;fill-opacity:1;stroke-width:0.577602"
     d="m 342.80668,504.15924 c -5.08207,-0.79673 -5.88139,-1.25962 -7.08694,-4.10398 -4.30455,-10.15616 -2.65161,-22.70183 3.9321,-29.84432 4.06039,-4.405 8.64313,-4.90646 12.88504,-1.40993 7.41455,6.1117 9.78587,19.44075 5.49766,30.90201 -1.01264,2.70654 -1.40533,3.1433 -3.27951,3.64758 -2.61702,0.70416 -9.60019,1.17677 -11.94835,0.80864 z"
     id="path56" />
  <path
     style="opacity:0;fill:#bababa;fill-opacity:1;stroke-width:0.577602"
     d="m 368.79876,499.96803 c -2.78536,-0.33029 -2.88348,-0.40405 -2.7605,-2.07526 1.0766,-14.63011 0.63,-18.99067 -2.64356,-25.81124 -1.59462,-3.32245 -1.64921,-3.65279 -0.81425,-4.92711 1.36319,-2.08049 5.41115,-4.207 8.00186,-4.2036 6.42337,0.008 12.184,8.34516 13.27771,19.21541 0.40509,4.02607 -0.4182,9.4591 -2.12441,14.01934 -1.04966,2.80547 -1.3143,3.06903 -3.67969,3.66464 -2.65705,0.66905 -4.41937,0.69148 -9.25716,0.11782 z"
     id="path57" />
</svg>
