<?xml version="1.0" encoding="UTF-8" standalone="no"?>
<svg
   id="Layer_2"
   data-name="Layer 2"
   viewBox="0 0 1494.17 286.74"
   version="1.1"
   sodipodi:docname="inline-flock-xr-dark2.svg"
   inkscape:version="1.4.2 (ebf0e940d0, 2025-05-08)"
   xmlns:inkscape="http://www.inkscape.org/namespaces/inkscape"
   xmlns:sodipodi="http://sodipodi.sourceforge.net/DTD/sodipodi-0.dtd"
   xmlns="http://www.w3.org/2000/svg"
   xmlns:svg="http://www.w3.org/2000/svg">
  <sodipodi:namedview
     id="namedview7"
     pagecolor="#ffffff"
     bordercolor="#000000"
     borderopacity="0.25"
     inkscape:showpageshadow="2"
     inkscape:pageopacity="0.0"
     inkscape:pagecheckerboard="0"
     inkscape:deskcolor="#d1d1d1"
     inkscape:zoom="1.2147212"
     inkscape:cx="746.6734"
     inkscape:cy="143.24275"
     inkscape:window-width="1920"
     inkscape:window-height="1128"
     inkscape:window-x="0"
     inkscape:window-y="0"
     inkscape:window-maximized="1"
     inkscape:current-layer="Layer_2" />
  <defs
     id="defs1">
    <style
       id="style1">
      .cls-1 {
        fill: #511d91;
      }
    </style>
  </defs>
  <g
     id="Layer_1-2"
     data-name="Layer 1"
     style="fill:#bababa;fill-opacity:1">
    <g
       id="g7"
       style="fill:#bababa;fill-opacity:1">
      <path
         class="cls-1"
         d="M38.22,29.73c-20.64,0-29.42,1.88-33.16,3.46-4.21,1.78-5.07,4.02-5.07,6.83v233.02c0,.17.02.27.03.29.06.09.52.53,1.66.99,1.48.61,6.84,2.02,24.77,2.02,13.9,0,28.78-.85,44.23-2.53h0c10.53-1.14,15.19-2.5,17.15-3.29v-78.61l67.74,2.45c.61-.71,2.19-3.06,3.77-9.6,2.3-9.57,3.47-19.75,3.47-30.25,0-13.47-1.02-18.45-1.62-20.22-.17-.49-.32-.76-.41-.91-.04,0-.1,0-.17,0-10.87,0-32.77.74-65.09,2.2l-7.68.35v-40.4l80.68,3.97c.64-1,1.85-3.43,3.14-8.82,2.18-9.07,3.29-22.72,3.29-40.55,0-13.26-1.41-18.53-2.17-20.4H38.22Z"
         id="path1"
         style="fill:#bababa;fill-opacity:1" />
      <path
         class="cls-1"
         d="M247.11,4.37c-14.98,0-29.14,2.44-42.09,7.26-13.46,5-15.71,8.56-15.98,9.09v253.44c.27.14.68.31,1.28.5,2.01.63,8.1,1.69,26.47,1.69,14.5,0,28.75-.79,42.35-2.34,8.15-.93,12.35-1.89,14.43-2.53V13.93c0-8.31-16.58-9.56-26.46-9.56Z"
         id="path2"
         style="fill:#bababa;fill-opacity:1" />
      <path
         class="cls-1"
         d="M637.62,127.87c8.29,0,17.63,2.23,28.57,6.82,10.9,4.58,14.29,5.48,15.17,5.66,1.5-.23,4.62-3.09,7.69-12.7,3.55-11.11,5.35-21.67,5.35-31.39,0-5.03-1.37-11.35-12.08-15.58-10.24-4.05-29.3-6.1-56.65-6.1-15.75,0-31.77,3.73-47.63,11.08-9.77,4.55-18.52,10.41-25.99,17.43-7.27,6.83-13.6,16.78-18.81,29.57-5.25,12.89-7.91,27.85-7.91,44.46,0,26.97,4.86,48.97,14.44,65.39,3.9,6.5,8.95,12.27,14.96,17.07,6.24,4.99,12.09,8.76,17.4,11.19,12.94,5.9,30.77,8.89,52.99,8.89s40.23-2.49,53.05-7.41c10.82-4.16,15.86-10.79,15.86-20.89,0-7.62-2-16.61-5.93-26.74-3.16-8.13-5.58-10.8-6.54-11.6-1.71.62-5.73,2.23-14.99,6.45-11.85,5.39-21.68,8.01-30.05,8.01-9.89,0-17.63-4.4-22.37-12.71-4.17-7.28-6.11-19.19-6.11-37.46s2.2-30.35,6.91-37.49c5.15-7.81,12.99-11.94,22.67-11.94Z"
         id="path3"
         style="fill:#bababa;fill-opacity:1" />
      <path
         class="cls-1"
         d="M860.75,173.37l4.76-4.75c10.05-10.05,19.93-23.28,29.37-39.33,12.7-21.6,13.69-28.49,13.69-30.09,0-.7-.7-7.04-25.09-15.07-18.14-5.97-33.87-9.17-46.8-9.52-2.5,4.06-8.94,19.53-21.26,78.29l-1.22,5.84h-18.1V13.93c0-8.31-16.58-9.56-26.46-9.56-14.98,0-29.14,2.44-42.09,7.26-13.46,5-15.71,8.56-15.98,9.09v253.38c.29.15.74.34,1.41.55,2.08.64,8.34,1.7,26.89,1.7,14.62,0,28.8-.79,42.15-2.34h0c7.93-.92,12.03-1.87,14.08-2.5v-35.69l20.39-24.31,3.62,13.71c5.5,20.82,10.67,36.55,15.38,46.77,4.23,9.2,7,11.32,7.63,11.71,5.6-.11,17.68-2.87,43.56-15.1,28.75-13.58,29.23-20.12,29.23-20.18-.25-2.34-4.67-14.68-50.85-69.9l-4.31-5.16Z"
         id="path4"
         style="fill:#bababa;fill-opacity:1" />
      <path
         class="cls-1"
         d="M1147.04,148.36l1.5-4.19c14.64-40.75,25.53-72.84,32.38-95.39,9.3-30.61,9.4-36.86,9.32-37.8-.46-3.86-1.93-7.69-9.45-9.38-8.46-1.9-19.04-2.11-31.45-.63-12.67,1.51-23.79,4.05-33.04,7.54-9.27,3.5-16.58,7.06-21.73,10.58-3.01,2.05-4.51,3.37-5.22,4.07l-3.04,76.02-15.15,1.81-26.09-74.8h0s-1.45-2.58-10.96-5.81c-8.2-2.78-18.78-3.42-31.41-1.91-13.18,1.57-27.79,5.4-43.43,11.39-12.85,4.92-16.81,8.42-17.97,9.8,3.18,6.01,17.46,28.51,71.89,106.78l2.57,3.69-1.81,4.11c-17.66,40.04-30.89,71.28-39.33,92.86-9.76,24.94-11.35,32.34-11.59,34.31.82.76,4.75,3.52,19.37,4.64,16.47,1.28,34.32.79,53.07-1.45,13.22-1.58,35.57-5.94,36.81-17.48l6.81-63.09,14.74-1.76,24.41,58.99c.89,2.2,8.27,12.48,69.43,5.18,23.67-2.82,37.71-8.53,38-15.38-2.58-4.7-16.42-24.3-75.86-99.21l-2.77-3.49Z"
         id="path5"
         style="fill:#bababa;fill-opacity:1" />
      <path
         class="cls-1"
         d="M1479.28,147.91c7.68-12.74,12.47-29.24,14.26-49.05,1.76-19.5-.1-34.79-5.53-45.45-3.18-6.27-6.57-11.8-10.1-16.44-3.06-4.01-7.73-7.59-13.89-10.63-7.07-3.48-13.63-6.44-19.5-8.78-5.53-2.2-13.37-4.15-23.3-5.8-10.29-1.71-19.42-3-27.12-3.83-7.89-.84-25.2-2.47-51.46-4.83-26-2.34-47.88-2.86-65.03-1.55-17.58,1.35-20.08,5.17-20.1,5.21l-23.05,256.22c-.01.16,0,.24,0,.25.01,0,.37.54,1.84,1.29,1.62.82,7.59,2.93,28.34,4.79,15.95,1.44,32.12,1.83,48.07,1.18,10.47-.42,15.45-1.36,17.7-2l7.84-87.07,20.59,3.08,19.66,89.69c.23.87.86,2.66,5.05,4.01,3.52,1.14,11.5,2.85,29.56,4.47,68.63,6.18,71.58-5.09,71.59-5.21.58-6.42-3.42-26.84-36.73-91.42l-3.67-7.11,7.11-3.67c10.96-5.66,20.34-14.87,27.88-27.37ZM1395.65,97.09c-3.44,38.15-23.43,42.09-35.04,41.05l-18.33-1.65,7.68-85.3,21.13,1.9c5.36.48,13.07,3.01,19.38,12.33,4.78,7.07,6.47,17.43,5.19,31.67Z"
         id="path6"
         style="fill:#bababa;fill-opacity:1" />
      <path
         class="cls-1"
         d="M493.55,197.67c-5.16-4.13-12.41-7.91-21.54-11.25-9.5-3.47-19.04-6.24-28.37-8.26.42-3.28-.27-6.27-1.71-8.29l1.66-11.32c.06-.02.13-.03.19-.05,22.37-6.31,38.77-23.33,45.14-46.76.58.09,1.12.18,1.66.26,19.09,2.8,37.04-2.91,37.77-7.85.47-3.22-3.01-7.11-9.55-10.68-6.65-3.63-15.31-6.36-24.37-7.69-.85-.12-1.68-.24-2.48-.33-.33-9.77-2.42-18.73-6.23-26.65-.06-.13-.13-.25-.19-.38,6.57-3.84,9.73-7.85,8.9-11.34-.7-2.94-4.15-4.96-9.74-5.8,5.53-3.53,9.15-7.5,9.61-10.64.08-.55.02-1.39-.73-2.25-1.85-2.15-7.47-3.62-14.68-3.93,4.24-3.96,6.74-8.16,6.96-11.77v-.17s-.03-.17-.03-.17c-.26-.98-1.12-1.88-2.56-2.67-5.28-2.87-20.23-4.76-35.54.31-9.64,3.19-18.22,7.81-23.63,12.69-14.72-.62-28.5,2.91-39.87,10.22-11.57,7.45-20.44,18.75-25.73,32.72-.96-.17-1.9-.32-2.82-.46-19.26-2.83-37.2,3.95-37.86,8.47-.89,6.05,14.86,16.2,33.84,18.99.47.07.97.14,1.51.21-.12,11.6,2.79,23.01,8.45,33.07,5.63,10,13.86,18.51,23.81,24.62.21.13.43.26.65.39l-1.34,9.12c-3.02.86-5.57,4.27-6.26,8.76-19.12-1.17-35.82-.29-49.86,2.65-21.58,4.59-33.88,16.09-36.54,34.18-3.01,20.49,5.05,36.03,23.95,46.2,9.37,5.18,20.09,9.41,31.93,12.63,12.27,3.34,27.37,6.33,44.88,8.9,33.15,4.87,60.43,4.41,81.08-1.36,20.38-5.7,32-17.34,34.54-34.59,1.27-8.68.41-16.52-2.55-23.32-2.91-6.66-7.06-12.17-12.31-16.38ZM407.61,159.42c1.63.35,3.27.65,4.89.89,2.17.32,4.34.55,6.46.69.06,0,.12,0,.18.01l-.67,4.56c-2.28,1.16-4.15,3.8-4.94,7.19-1.52-.23-3.07-.47-4.64-.7.18-3.03-.59-5.75-2.02-7.56l.74-5.07ZM421.71,228.27c-1,6.79-2.68,12.42-4.99,16.74-2.8,5.21-5.33,7.75-8.74,8.76-2.34.7-6.43,1.35-12.56.45-6.13-.9-9.86-2.7-11.91-4.05-2.15-1.41-4.38-3.72-6.01-10.88-1.12-4.9-1.07-11.38.17-19.81,1.24-8.43,3.05-14.68,5.54-19.11,2.93-5.23,5.57-7.79,9.09-8.85,3.49-1.05,7.91-1.23,12.77-.52,3.81.56,9.2,2.05,13.22,5.95l.06.06c1.76,1.77,2.95,3.88,3.66,6.44.61,2.26.95,5.23,1.04,9.09.08,3.78-.38,9.06-1.35,15.72Z"
         id="path7"
         style="fill:#bababa;fill-opacity:1" />
    </g>
  </g>
</svg>
