<?xml version="1.0" encoding="utf-8"?><svg version="1.1" id="Layer_1" xmlns="http://www.w3.org/2000/svg" xmlns:xlink="http://www.w3.org/1999/xlink" x="0px" y="0px" viewBox="0 0 122.88 110.35" style="enable-background:new 0 0 122.88 110.35" xml:space="preserve"><g><path d="M6.32,0v6.22h12.22V0h6.32v14.88h73.15V0h6.32v6.22h12.22V0h6.32v110.35h-6.32v-7.19h-12.22v7.19h-6.32V94.79H24.87v15.56 h-6.32v-7.19H6.32v7.19H0V0H6.32L6.32,0z M44.67,35.77h33.53c0.76,0,1.45,0.31,1.95,0.81s0.81,1.19,0.81,1.95v33.3 c0,0.76-0.31,1.45-0.81,1.95c-0.5,0.5-1.19,0.81-1.95,0.81H44.67c-0.76,0-1.45-0.31-1.95-0.81c-0.5-0.5-0.81-1.19-0.81-1.95v-33.3 c0-0.76,0.31-1.45,0.81-1.95C43.23,36.08,43.92,35.77,44.67,35.77L44.67,35.77L44.67,35.77z M44.81,63.83l11.25-10.77 c0.45-0.42,1.16-0.37,1.56,0.08c0.01,0.01,0.01,0.02,0.02,0.02l10,11.83l1.53-9.41c0.1-0.6,0.67-1.02,1.27-0.92 c0.23,0.03,0.44,0.15,0.6,0.3l7.01,7.37V39.19c0-0.15-0.06-0.28-0.16-0.37c-0.09-0.09-0.23-0.16-0.37-0.16h-32.2 c-0.15,0-0.28,0.06-0.37,0.16c-0.09,0.09-0.16,0.23-0.16,0.37v24.64H44.81L44.81,63.83L44.81,63.83z M70.68,42.08 c1.1,0,2.11,0.45,2.83,1.17c0.73,0.73,1.17,1.73,1.17,2.83c0,1.1-0.45,2.11-1.17,2.83c-0.73,0.73-1.73,1.17-2.83,1.17 c-1.1,0-2.11-0.45-2.83-1.17c-0.73-0.73-1.17-1.73-1.17-2.83c0-1.1,0.45-2.11,1.17-2.83C68.59,42.52,69.58,42.08,70.68,42.08 L70.68,42.08z M98.01,21.2H24.87v67.27h73.15V21.2L98.01,21.2z M116.56,96.84v-11.8h-12.22v11.8H116.56L116.56,96.84z M116.56,78.72v-11.8h-12.22v11.8H116.56L116.56,78.72z M116.56,60.59v-11.8h-12.22v11.8H116.56L116.56,60.59z M116.56,42.47v-11.8 h-12.22v11.8H116.56L116.56,42.47z M116.56,24.35v-11.8h-12.22v11.8H116.56L116.56,24.35z M18.54,96.84v-11.8H6.32v11.8H18.54 L18.54,96.84z M18.54,78.72v-11.8H6.32v11.8H18.54L18.54,78.72z M18.54,60.59v-11.8H6.32v11.8H18.54L18.54,60.59z M18.54,42.47 v-11.8H6.32v11.8H18.54L18.54,42.47z M18.54,24.35v-11.8H6.32v11.8H18.54L18.54,24.35z"/></g></svg>