<?xml version="1.0" encoding="utf-8"?><svg version="1.1" id="Layer_1" xmlns="http://www.w3.org/2000/svg" xmlns:xlink="http://www.w3.org/1999/xlink" x="0px" y="0px" viewBox="0 0 122.88 117.9" style="enable-background:new 0 0 122.88 117.9" xml:space="preserve"><style type="text/css">.st0{fill-rule:evenodd;clip-rule:evenodd;}</style><g><path class="st0" d="M45.66,5.21C56.01,0.78,66.37-0.71,76,0.31c28.85,3.05,51.04,28.65,46.22,65.16 c-2.67,20.22-9.19,38.25-28.38,47.16c-9.97,4.63-20.72,6.24-29.39,4.71c-20.25-3.57-14.44-17.23-19.87-31.39 c-6.4-16.7-19.64-21.02-25.11,0.42c-1.38,5.42-6.29,7.08-9.26,7.41c-6.13,0.68-11.05-7.25-10.1-21.24 C2.08,43.77,18.82,16.7,45.66,5.21L45.66,5.21z M29.53,37.96c5.46,0,9.88,4.42,9.88,9.88c0,5.46-4.42,9.88-9.88,9.88 s-9.88-4.42-9.88-9.88C19.65,42.39,24.07,37.96,29.53,37.96L29.53,37.96z M94.87,61.54c3.25,0,5.89,2.64,5.89,5.89 c0,3.26-2.64,5.9-5.89,5.9c-3.25,0-5.89-2.64-5.89-5.9C88.98,64.17,91.62,61.54,94.87,61.54L94.87,61.54z M71.64,69.86 c7.47,0,13.52,6.05,13.52,13.52c0,7.47-6.05,13.52-13.52,13.52c-7.47,0-13.52-6.06-13.52-13.52 C58.13,75.91,64.18,69.86,71.64,69.86L71.64,69.86z M57.43,50.96c3.25,0,5.89,2.64,5.89,5.89c0,3.25-2.64,5.89-5.89,5.89 c-3.26,0-5.9-2.64-5.9-5.89C51.54,53.6,54.18,50.96,57.43,50.96L57.43,50.96z M86.9,22.54c7.47,0,13.52,6.05,13.52,13.52 c0,7.47-6.06,13.52-13.52,13.52c-7.47,0-13.52-6.05-13.52-13.52C73.38,28.59,79.43,22.54,86.9,22.54L86.9,22.54z M56.22,20.63 c4.59,0,8.32,3.73,8.32,8.32c0,4.59-3.72,8.32-8.32,8.32c-4.59,0-8.32-3.73-8.32-8.32C47.9,24.35,51.63,20.63,56.22,20.63 L56.22,20.63z"/></g></svg>