  <svg xmlns="http://www.w3.org/2000/svg" shape-rendering="geometricPrecision" text-rendering="geometricPrecision" image-rendering="optimizeQuality" fill-rule="evenodd" clip-rule="evenodd" viewBox="0 0 506 511.79"><path fill="#FFFFFF" fill-rule="nonzero" d="M11.41 79.61L248.43.68c2.83-.96 5.79-.87 8.42.05V.68l240.14 82.26c5.92 2 9.5 7.75 8.96 13.7.04.29.04.63.04.96v279.29h-.04c0 4.83-2.67 9.5-7.29 11.83L260.22 509.88c-2 1.2-4.37 1.91-6.87 1.91-2.67 0-5.12-.79-7.21-2.12L7.16 385.02c-4.49-2.38-7.12-6.96-7.12-11.75H0V92.77c0-6.71 4.96-12.25 11.41-13.16zm292.94 159.41c11.86-5.76 23.7-11.52 35.54-17.21 11.8-5.68 23.58-11.37 35.35-17.02 13.86-6.66 25.21-9.99 34.03-10.03 8.89-.04 16.47 2.31 22.84 7.02 6.39 4.73 11.39 11.32 15.08 19.83 3.68 8.51 6.23 18.11 7.58 28.97 2.1 16.92 1.81 31.03-1.02 42.41-2.83 11.36-7.48 22.1-13.97 32.18-6.53 10.14-13.89 18.45-22.08 25-11.22 8.96-21.58 15.95-30.95 20.89-13.13 6.91-26.27 13.82-39.42 20.76-13.18 6.96-26.38 13.97-39.6 20.94-.88-28.67-1.71-57.47-2.26-86.36-.55-29.02-.87-58.16-1.12-87.38zm49.37 15.43c.7 15.42 1.43 30.84 2.23 46.21.8 15.34 1.68 30.64 2.58 45.91 4.24-2.17 8.49-4.36 12.72-6.55 10.82-5.61 18.44-10.75 22.82-15.47 4.34-4.66 7.53-10.59 9.57-17.74 2.05-7.16 2.44-17.24 1.31-30.32-1.5-17.39-5.21-27.89-11.18-31.68-5.94-3.75-15.2-2.62-27.84 3.6-4.09 2.01-8.14 4.02-12.21 6.04zm-245.06-5.21c-8.59-4.23-17.16-8.42-25.75-12.59-8.56-4.17-17.13-8.29-25.72-12.42 4.97-11.86 13.69-19.5 26.26-22.88 6.28-1.69 13.77-2.15 22.49-1.3 8.72.85 18.67 2.99 29.85 6.51 12.85 4.03 23.88 8.61 33.06 13.67 9.2 5.06 16.61 10.68 22.16 16.82 11.15 12.33 16.47 25.05 15.97 37.99-.29 7.51-2.9 13.51-7.79 17.88-4.88 4.36-12.11 7.04-21.67 8.07 7.58 4.51 13.34 8.62 17.28 12.34 6.43 6.07 11.35 12.67 14.76 19.87 3.42 7.23 4.98 14.89 4.66 22.93-.4 10.1-3.74 18.54-10.19 25.17-6.39 6.59-15.4 9.84-26.99 9.79-5.8-.03-12.46-1.03-19.98-3.07-7.51-2.03-15.92-5.05-25.19-9-18.02-7.67-32.17-15.4-42.42-23.14-10.24-7.72-18.55-16.09-24.97-25.25-6.37-9.09-11.12-19.15-14.19-30.24 9.19 2.58 18.43 5.17 27.63 7.71 9.21 2.54 18.46 5.16 27.68 7.71 1.75 9.9 4.78 17.47 9.18 22.83 4.36 5.31 10.05 9.47 17.12 12.35 7.34 3 13.6 3.28 18.72.79 5.1-2.49 7.79-7.62 8.11-15.26.32-7.75-1.72-14.65-6.26-20.76-4.5-6.04-10.85-10.6-18.9-13.63-4.29-1.61-10.27-2.96-17.85-4.01 1.45-10.43 2.86-20.93 4.32-31.49 2.96 1.43 5.3 2.47 7.02 3.08 7.08 2.54 13.11 2.71 18 .53 4.9-2.19 7.49-5.95 7.72-11.29.23-5.17-1.41-9.89-4.83-14.12-3.45-4.26-8.3-7.44-14.5-9.5-6.44-2.14-11.7-2.26-15.9-.32-4.12 1.9-7.09 6.67-8.89 14.23zm131.4 227.4V209.51L26.57 112.72v252.55l213.49 111.37zm239.31-360.76l-212.74 93.75v267.26l212.74-108.12V115.88zm-226.9-88.67L50.56 94.48l202.87 92L456.3 97.06 252.47 27.21z"/></svg>