<svg xmlns="http://www.w3.org/2000/svg" shape-rendering="geometricPrecision" text-rendering="geometricPrecision" image-rendering="optimizeQuality" fill-rule="evenodd" clip-rule="evenodd" viewBox="0 0 480 512.48"><path d="m296.38 168.27 11.6 11.53h.09c4.91 4.96 5.22 13.22-.09 17.99l-6.81 6.9c.07.23.23.46.3.69 1.25 2.62 2.34 5.65 3.18 8.42l.15.53h8.36c6.99 0 12.82 5.82 12.82 12.82v16.52c0 7.28-5.67 12.8-12.82 12.8h-9.7c-.89 2.9-2.83 6.56-4.23 9.34l5.91 5.83.23.23c4.9 4.9 4.54 13.02 0 17.98l-.16.16-11.61 11.53c-4.86 5.2-13.33 5.14-18.21 0l-6.74-6.83c-.72.5-9.04 3.59-9.72 3.59v8.28c0 7-5.82 12.82-12.83 12.82h-16.51c-7.28 0-12.81-5.68-12.81-12.82v-9.7c-3.15-1.15-6.32-2.76-9.33-4.25l-5.82 5.9-.23.23c-4.94 4.89-13.01 4.57-18 0l-.15-.15-11.6-11.76c-5.19-5.18-5.01-12.9.08-18.06l6.81-6.75c-.15-.23-.23-.46-.31-.76-1.1-2.68-2.39-5.54-3.12-8.34l-.15-.62h-8.18c-7.06 0-12.8-5.82-12.8-12.87v-16.52c0-7.21 5.63-12.82 12.84-12.82h9.68c1.17-3.39 2.71-6.17 4.23-9.35l-5.82-5.89c-5.11-5.11-5.05-13.09 0-18.23l11.52-11.6v-.07c4.9-4.94 13.26-5.2 17.99.07l6.89 6.83c.24-.08.46-.24.61-.31 2.72-1.27 5.5-2.28 8.36-3.19.23-.07.38-.15.6-.15v-8.27c0-7 5.82-12.82 12.83-12.82h16.51c7.24 0 12.83 5.58 12.83 12.82v9.7c.23.07.53.23.77.3 2.64 1.04 5.63 2.36 8.11 3.72l.46.23 5.9-5.83c5.54-5.54 13.12-4.69 18.09.2zM16.94 257.66c-4.5.06-8.65-1.66-11.7-4.53-6.68-6.29-7.03-16.88-.74-23.57 2.92-3.1 7.03-5.09 11.62-5.25l35.76-1.23c4.6-.16 8.83 1.58 11.94 4.49 6.68 6.32 7.06 16.88.75 23.6a16.77 16.77 0 0 1-11.63 5.25c-11.84 0-24.1 1.01-36 1.24zm171.04 169.38c-4.68.12-8.79-3.33-9.45-8.05-.69-4.93 2.63-9.49 7.47-10.43-5.33-30.26-19.91-46.93-35.31-64.54-11.98-13.72-24.43-27.97-34.24-48.95-9.64-20.65-14.94-42-14.78-64.17.21-22.17 5.83-45 18.07-68.61.08-.17.16-.29.24-.45 16.06-27.18 38.52-45.33 63.52-55.51 20.98-8.58 43.77-11.5 66.1-9.45 22.26 2.06 44.06 9.04 63.11 20.29 24.23 14.32 44.14 35.6 55.1 62.45 5.92 14.53 9.94 30.75 10.44 48.53.49 17.69-2.55 36.79-10.72 56.99-10.92 27.05-25.38 43.85-38.88 59.57-12.44 14.5-24.03 27.96-30.47 48.62 3.65.86 6.53 3.85 7.1 7.8.7 5.09-2.87 9.81-7.96 10.51l-3.16.45c-.58 4.48-.95 9.28-1.12 14.41l1.03-.16c5.1-.7 9.81 2.87 10.51 7.96.7 5.09-2.87 9.82-7.96 10.51l-3.2.46c.27 4.13.5 8.09.24 12.27l.53-.08c5.14-.62 9.78 3.04 10.43 8.13.62 5.13-3.03 9.77-8.13 10.43l-6.89.86c-15.75 40.81-70.36 49.78-92.59 9.77a9.361 9.361 0 0 1-5.05-7.18 9.13 9.13 0 0 1 .29-3.66c-1.6-4.76-2.8-9.97-3.57-15.72l-.29.04c-5.09.7-9.82-2.88-10.51-7.97-.7-5.09 2.87-9.81 7.96-10.51l2.22-.32c.16-5.01.12-9.78-.08-14.29zm15.39-20.99 75.92-10.79c6.53-27.51 20.73-44.06 36.13-61.92 12.65-14.7 26.12-30.38 35.97-54.77 7.23-17.86 9.9-34.61 9.49-50.05-.41-15.4-3.94-29.61-9.2-42.46-9.45-23.11-26.73-41.51-47.83-53.99-16.88-9.98-36.14-16.18-55.81-17.94-19.58-1.81-39.58.78-58.01 8.29-21.59 8.83-41.01 24.52-54.98 48.12-10.84 21.02-15.85 41.15-16.01 60.48-.16 19.46 4.56 38.31 13.14 56.66 8.74 18.73 20.4 32.03 31.57 44.84 20.63 23.64 34.32 41.45 39.62 73.53zm72.84 8.5-70.91 10.06c.21 4.52.29 9.24.21 14.25l70-9.94c.08-5.04.29-9.85.7-14.37zm-70.33 43.11c.49 3.78 1.23 7.23 2.17 10.44l67.95-8.38c.54-4.15.42-7.92.17-12.03l-70.29 9.97zm11.82 28.09c14.95 15.65 39.07 10.46 50.88-6.28l-50.88 6.28zm243.91-279.4a16.6 16.6 0 0 1 12.22 3.67c3.31 2.7 5.61 6.66 6.08 11.24.47 4.57-.98 8.92-3.66 12.22-2.7 3.31-6.68 5.6-11.24 6.08l-35.56 3.73c-4.57.47-8.91-.96-12.22-3.66a16.66 16.66 0 0 1-6.08-11.24c-.46-4.57.96-8.91 3.66-12.22 2.7-3.31 6.67-5.61 11.24-6.08l35.56-3.74zM391.03 64.23c2.57-3.84 6.45-6.28 10.61-7.1l.41-.08c4.05-.7 8.4.11 12.11 2.6 3.83 2.58 6.28 6.45 7.1 10.63.81 4.16.04 8.66-2.53 12.49l-19.87 29.73c-2.58 3.84-6.45 6.28-10.63 7.1-4.16.81-8.66.04-12.49-2.52-3.84-2.59-6.28-6.46-7.11-10.6l-.07-.42c-.7-4.05.12-8.38 2.6-12.09l19.87-29.74zM236.62 16.26c.12-4.62 2.09-8.75 5.17-11.68A16.56 16.56 0 0 1 253.66.01c4.63.11 8.76 2.08 11.69 5.15 2.93 3.08 4.69 7.29 4.58 11.88l-.91 35.54c.03.42 0 .83-.06 1.23-.36 4.19-2.26 7.94-5.1 10.64a16.61 16.61 0 0 1-11.68 4.58c-.42.03-.83 0-1.22-.06a16.71 16.71 0 0 1-10.67-5.11 16.56 16.56 0 0 1-4.57-11.87l.9-35.73zM59.52 77.62A16.66 16.66 0 0 1 54.23 66c-.16-4.28 1.31-8.62 4.44-11.98a16.66 16.66 0 0 1 11.62-5.29c4.28-.15 8.61 1.32 11.97 4.44l26.15 24.39c3.36 3.13 5.15 7.35 5.3 11.63.15 4.28-1.33 8.61-4.44 11.96a16.638 16.638 0 0 1-11.62 5.29A16.65 16.65 0 0 1 85.68 102L59.52 77.62zm187.75 119.34c11.83 2.3 22.07 10.77 26.66 21.88.08.16.08.29.16.38.93 2.18 1.6 4.48 2.04 6.66.94 4.98 1.09 9.89 0 14.86-2.31 11.93-10.76 22.04-21.89 26.75-.16.08-.31.08-.37.14-6.53 2.74-14.65 3.59-21.53 2.04-11.87-2.29-22.03-10.79-26.67-21.88-.08-.15-.08-.3-.16-.38-2.73-6.54-3.57-14.64-2.02-21.53 1.78-9.21 7.72-18.16 15.51-23.33 3.75-2.64 8.84-4.71 13.34-5.59 4.96-.97 9.97-1.1 14.93 0z"/></svg>