
<svg xmlns="http://www.w3.org/2000/svg" shape-rendering="geometricPrecision" text-rendering="geometricPrecision" image-rendering="optimizeQuality" fill-rule="evenodd" clip-rule="evenodd" viewBox="0 0 512 389.4"><path fill-rule="nonzero" d="M44.44 0h305.5c24.27 0 44.43 20.18 44.43 44.45v48.12c-4.01 1.06-12.73 3.1-23.9 5.63V44.45c0-11.15-9.36-20.54-20.53-20.54H44.44c-11.3 0-20.53 9.22-20.53 20.54v140.21c24.43-20.6 53.5-43.75 73.69-60.72 4.37-3.77 10.86-3.69 15.15-.03.86.72 1.51 1.59 2.23 2.46l57.09 94.48 27.48-67.77c1.78-9.47 12.96-12.61 19.73-6.32l14.57 13.95-2.06 30.55-12.64-12.13-30.19 70.47c-1.42 9.98-13.81 13.77-20.5 6.07l-64.35-105.86-80.2 67.25v89.63c0 11.21 9.31 20.54 20.53 20.54h178.19l-.97 14.29c0 3.05 1.68 5.96 4.51 7.47l4.62 2.15H44.44C20.18 351.14 0 330.95 0 306.69V44.45C0 20.01 20.02 0 44.44 0zm366.81 253.12c5.93-2.88 11.84-5.76 17.75-8.6s11.79-5.68 17.67-8.5c6.92-3.34 12.59-4.99 16.99-5.01 4.45-.02 8.23 1.15 11.42 3.5 3.19 2.36 5.69 5.65 7.53 9.91 1.85 4.25 3.12 9.05 3.79 14.47 1.05 8.46.91 15.51-.51 21.19-1.41 5.67-3.74 11.05-6.98 16.07-3.26 5.08-6.94 9.22-11.03 12.5-5.6 4.48-10.78 7.97-15.46 10.43-6.56 3.46-13.13 6.92-19.69 10.38-6.59 3.47-13.18 6.98-19.79 10.46-.44-14.32-.86-28.71-1.13-43.15-.28-14.49-.43-29.06-.56-43.65zm24.67 7.7c.34 7.71.71 15.42 1.11 23.09.4 7.67.84 15.31 1.29 22.95 2.12-1.09 4.23-2.18 6.35-3.28 5.41-2.8 9.22-5.37 11.41-7.73 2.16-2.33 3.76-5.29 4.78-8.86 1.02-3.58 1.22-8.61.65-15.15-.75-8.69-2.6-13.93-5.58-15.82-2.98-1.88-7.6-1.32-13.91 1.79-2.05 1-4.07 2.01-6.1 3.01zm-122.44-2.6c-4.29-2.11-8.58-4.2-12.86-6.29-4.28-2.08-8.56-4.14-12.86-6.2 2.49-5.93 6.84-9.75 13.13-11.43 3.13-.85 6.87-1.08 11.23-.65 4.36.42 9.32 1.5 14.92 3.25 6.41 2.01 11.92 4.31 16.51 6.83 4.6 2.53 8.3 5.34 11.07 8.41 5.57 6.15 8.23 12.51 7.98 18.97-.14 3.76-1.44 6.75-3.89 8.94-2.44 2.18-6.06 3.52-10.83 4.03 3.8 2.26 6.67 4.31 8.64 6.16 3.21 3.04 5.67 6.34 7.36 9.93 1.72 3.61 2.49 7.44 2.34 11.46-.2 5.04-1.87 9.26-5.09 12.58-3.2 3.29-7.7 4.91-13.49 4.88-2.9-.01-6.22-.51-9.98-1.53-3.75-1.02-7.95-2.52-12.58-4.49-9.01-3.84-16.08-7.69-21.2-11.57-5.12-3.85-9.26-8.03-12.47-12.61-3.19-4.54-5.56-9.56-7.1-15.11 4.6 1.29 9.22 2.58 13.81 3.85 4.6 1.27 9.22 2.58 13.83 3.85.88 4.95 2.38 8.73 4.59 11.41 2.18 2.65 5.02 4.73 8.55 6.17 3.67 1.5 6.79 1.64 9.36.4 2.55-1.25 3.89-3.81 4.05-7.62.16-3.88-.86-7.33-3.13-10.38-2.25-3.02-5.42-5.3-9.44-6.81-2.15-.81-5.14-1.48-8.92-2 .72-5.22 1.43-10.46 2.16-15.74 1.47.72 2.65 1.24 3.5 1.54 3.54 1.28 6.56 1.35 9 .26 2.44-1.09 3.74-2.96 3.85-5.64.12-2.57-.7-4.94-2.41-7.04-1.72-2.14-4.15-3.73-7.25-4.76-3.22-1.07-5.84-1.13-7.94-.16-2.06.95-3.54 3.34-4.44 7.11zm-48.59-84.75l118.42-39.43c1.42-.47 2.89-.44 4.21.02v-.02l119.98 41.1a6.61 6.61 0 014.47 6.85c.02.14.02.31.02.47V322h-.02c0 2.42-1.33 4.75-3.64 5.91L389.2 388.44c-.99.6-2.19.96-3.43.96-1.33 0-2.56-.39-3.6-1.06l-119.4-62.28a6.635 6.635 0 01-3.56-5.87h-.02V180.05a6.65 6.65 0 015.7-6.58zm114.24 198.36V238.37l-106.66-48.36V316.2l106.66 55.63zm119.56-180.24L392.4 238.44v133.53l106.29-54.03V191.59zM385.33 147.3l-100.87 33.6 101.35 45.97 101.35-44.68-101.83-34.89zM217.8 54.69c9.87 0 18.84 4.02 25.33 10.5 6.48 6.48 10.49 15.44 10.49 25.33 0 9.87-4.01 18.84-10.49 25.32-6.49 6.49-15.46 10.5-25.33 10.5-9.89 0-18.84-4.01-25.33-10.5-6.48-6.48-10.49-15.45-10.49-25.32 0-9.89 4.01-18.85 10.49-25.33 6.49-6.48 15.44-10.5 25.33-10.5zm10.93 24.9a15.417 15.417 0 00-10.93-4.52c-4.27 0-8.14 1.73-10.93 4.52a15.417 15.417 0 00-4.52 10.93c0 4.27 1.73 8.14 4.52 10.93a15.45 15.45 0 0010.93 4.51c4.27 0 8.14-1.73 10.93-4.51 2.79-2.79 4.52-6.66 4.52-10.93s-1.73-8.14-4.52-10.93z"/></svg>