<svg xmlns="http://www.w3.org/2000/svg" xmlns:xlink="http://www.w3.org/1999/xlink" contentStyleType="text/css" data-diagram-type="DESCRIPTION" height="703px" preserveAspectRatio="none" style="width:2009px;height:703px;background:#FFFFFF;" version="1.1" viewBox="0 0 2009 703" width="2009px" zoomAndPan="magnify"><?plantuml 1.2026.3beta5?><defs/><g><g class="title" data-source-line="1"><text fill="#111111" font-family="sans-serif" font-size="14" font-weight="700" lengthAdjust="spacing" textLength="298.2383" x="851.9609" y="22.9951">Flock XR Architecture (High Contrast)</text></g><!--cluster External Dependencies--><g class="cluster" data-qualified-name="External Dependencies" data-source-line="21" id="ent0002"><path d="M1776.17,328.9669 L1958.9513,328.9669 A3.75,3.75 0 0 1 1961.4513,331.4669 L1968.4513,351.2637 L1991.66,351.2637 A2.5,2.5 0 0 1 1994.16,353.7637 L1994.16,517.4669 A2.5,2.5 0 0 1 1991.66,519.9669 L1776.17,519.9669 A2.5,2.5 0 0 1 1773.67,517.4669 L1773.67,331.4669 A2.5,2.5 0 0 1 1776.17,328.9669" fill="none" style="stroke:#511D91;stroke-width:1.5;"/><line style="stroke:#511D91;stroke-width:1.5;" x1="1773.67" x2="1968.4513" y1="351.2637" y2="351.2637"/><text fill="#511D91" font-family="sans-serif" font-size="14" font-weight="700" lengthAdjust="spacing" textLength="181.7813" x="1777.67" y="343.962">External Dependencies</text></g><!--cluster Flock XR App--><g class="cluster" data-qualified-name="Flock XR App" data-source-line="26" id="ent0005"><path d="M8.5,81.9669 L113.29,81.9669 A3.75,3.75 0 0 1 115.79,84.4669 L122.79,104.2637 L1499.17,104.2637 A2.5,2.5 0 0 1 1501.67,106.7637 L1501.67,410.4669 A2.5,2.5 0 0 1 1499.17,412.9669 L8.5,412.9669 A2.5,2.5 0 0 1 6,410.4669 L6,84.4669 A2.5,2.5 0 0 1 8.5,81.9669" fill="none" style="stroke:#511D91;stroke-width:1.5;"/><line style="stroke:#511D91;stroke-width:1.5;" x1="6" x2="122.79" y1="104.2637" y2="104.2637"/><text fill="#511D91" font-family="sans-serif" font-size="14" font-weight="700" lengthAdjust="spacing" textLength="103.79" x="10" y="96.962">Flock XR App</text></g><!--entity Blockly--><g class="entity" data-qualified-name="External Dependencies.Blockly" data-source-line="22" id="ent0003"><rect fill="#511D91" height="52.5938" rx="2.5" ry="2.5" style="stroke:#511D91;stroke-width:0.5;" width="151.4688" x="1808.18" y="451.6669"/><text fill="#FFFFFF" font-family="sans-serif" font-size="14" lengthAdjust="spacing" textLength="50.0391" x="1818.18" y="474.662">Blockly</text><text fill="#FFFFFF" font-family="sans-serif" font-size="14" lengthAdjust="spacing" textLength="131.4688" x="1818.18" y="490.9589">(blockly + plugins)</text></g><!--entity Babylon--><g class="entity" data-qualified-name="External Dependencies.Babylon" data-source-line="23" id="ent0004"><rect fill="#511D91" height="52.5938" rx="2.5" ry="2.5" style="stroke:#511D91;stroke-width:0.5;" width="188.4854" x="1789.67" y="363.6669"/><text fill="#FFFFFF" font-family="sans-serif" font-size="14" lengthAdjust="spacing" textLength="72.3174" x="1799.67" y="386.662">Babylon.js</text><text fill="#FFFFFF" font-family="sans-serif" font-size="14" lengthAdjust="spacing" textLength="168.4854" x="1799.67" y="402.9589">(@babylonjs/* + Havok)</text></g><!--entity Main--><g class="entity" data-qualified-name="Flock XR App.Main" data-source-line="27" id="ent0006"><rect fill="#511D91" height="52.5938" rx="2.5" ry="2.5" style="stroke:#511D91;stroke-width:0.5;" width="110.3096" x="22" y="189.6669"/><text fill="#FFFFFF" font-family="sans-serif" font-size="14" lengthAdjust="spacing" textLength="65.2217" x="32" y="212.662">Main App</text><text fill="#FFFFFF" font-family="sans-serif" font-size="14" lengthAdjust="spacing" textLength="90.3096" x="32" y="228.9589">main/main.js</text></g><!--entity BlocklyInit--><g class="entity" data-qualified-name="Flock XR App.BlocklyInit" data-source-line="28" id="ent0007"><rect fill="#511D91" height="52.5938" rx="2.5" ry="2.5" style="stroke:#511D91;stroke-width:0.5;" width="146.793" x="363.31" y="325.6669"/><text fill="#FFFFFF" font-family="sans-serif" font-size="14" lengthAdjust="spacing" textLength="76.8701" x="373.31" y="348.662">Blockly Init</text><text fill="#FFFFFF" font-family="sans-serif" font-size="14" lengthAdjust="spacing" textLength="126.793" x="373.31" y="364.9589">main/blocklyinit.js</text></g><!--entity Exec--><g class="entity" data-qualified-name="Flock XR App.Exec" data-source-line="29" id="ent0008"><rect fill="#511D91" height="52.5938" rx="2.5" ry="2.5" style="stroke:#511D91;stroke-width:0.5;" width="144.2295" x="364.59" y="189.6669"/><text fill="#FFFFFF" font-family="sans-serif" font-size="14" lengthAdjust="spacing" textLength="69.1318" x="374.59" y="212.662">Execution</text><text fill="#FFFFFF" font-family="sans-serif" font-size="14" lengthAdjust="spacing" textLength="124.2295" x="374.59" y="228.9589">main/execution.js</text></g><!--entity I18N--><g class="entity" data-qualified-name="Flock XR App.I18N" data-source-line="30" id="ent0009"><rect fill="#511D91" height="52.5938" rx="2.5" ry="2.5" style="stroke:#511D91;stroke-width:0.5;" width="150.6074" x="1291.98" y="285.6669"/><text fill="#FFFFFF" font-family="sans-serif" font-size="14" lengthAdjust="spacing" textLength="78.3398" x="1301.98" y="308.662">Translation</text><text fill="#FFFFFF" font-family="sans-serif" font-size="14" lengthAdjust="spacing" textLength="130.6074" x="1301.98" y="324.9589">main/translation.js</text></g><!--entity BlockDefs--><g class="entity" data-qualified-name="Flock XR App.BlockDefs" data-source-line="32" id="ent0010"><rect fill="#511D91" height="52.5938" rx="2.5" ry="2.5" style="stroke:#511D91;stroke-width:0.5;" width="137.4004" x="778.3" y="256.6669"/><text fill="#FFFFFF" font-family="sans-serif" font-size="14" lengthAdjust="spacing" textLength="117.4004" x="788.3" y="279.662">Block Definitions</text><text fill="#FFFFFF" font-family="sans-serif" font-size="14" lengthAdjust="spacing" textLength="71.791" x="788.3" y="295.9589">blocks/*.js</text></g><!--entity Generators--><g class="entity" data-qualified-name="Flock XR App.Generators" data-source-line="33" id="ent0011"><rect fill="#511D91" height="52.5938" rx="2.5" ry="2.5" style="stroke:#511D91;stroke-width:0.5;" width="193.2021" x="750.4" y="344.6669"/><text fill="#FFFFFF" font-family="sans-serif" font-size="14" lengthAdjust="spacing" textLength="118.6787" x="760.4" y="367.662">Code Generators</text><text fill="#FFFFFF" font-family="sans-serif" font-size="14" lengthAdjust="spacing" textLength="173.2021" x="760.4" y="383.9589">generators/generators.js</text></g><!--entity FlockCore--><g class="entity" data-qualified-name="Flock XR App.FlockCore" data-source-line="35" id="ent0012"><rect fill="#511D91" height="52.5938" rx="2.5" ry="2.5" style="stroke:#511D91;stroke-width:0.5;" width="209.7998" x="742.1" y="168.6669"/><text fill="#FFFFFF" font-family="sans-serif" font-size="14" lengthAdjust="spacing" textLength="123.5186" x="752.1" y="191.662">Flock Core Object</text><text fill="#FFFFFF" font-family="sans-serif" font-size="14" lengthAdjust="spacing" textLength="189.7998" x="752.1" y="207.9589">flock.js (export const flock)</text></g><!--entity ApiModules--><g class="entity" data-qualified-name="Flock XR App.ApiModules" data-source-line="36" id="ent0013"><rect fill="#511D91" height="68.8906" rx="2.5" ry="2.5" style="stroke:#511D91;stroke-width:0.5;" width="236.7676" x="1248.9" y="181.5169"/><text fill="#FFFFFF" font-family="sans-serif" font-size="14" lengthAdjust="spacing" textLength="125.5625" x="1258.9" y="204.512">Flock API Modules</text><text fill="#FFFFFF" font-family="sans-serif" font-size="14" lengthAdjust="spacing" textLength="48.7061" x="1258.9" y="220.8089">api/*.js</text><text fill="#FFFFFF" font-family="sans-serif" font-size="14" lengthAdjust="spacing" textLength="216.7676" x="1258.9" y="237.1057">(scene, shapes, xr, physics, ...)</text></g><!--link Main to BlocklyInit--><g class="link" data-entity-1="ent0006" data-entity-2="ent0007" data-link-type="dependency" data-source-line="39" id="lnk14"><path d="M113.68,242.4869 C128.21,252.4269 145.52,263.1969 162.31,270.9669 C227.45,301.1169 300.6728,321.7088 356.9828,335.0988" fill="none" id="Main-to-BlocklyInit" style="stroke:#000000;stroke-width:1;"/><polygon fill="#000000" points="362.82,336.4869,354.9895,330.5133,357.9556,335.3302,353.1388,338.2963,362.82,336.4869" style="stroke:#000000;stroke-width:1;"/><text fill="#111111" font-family="sans-serif" font-size="13" lengthAdjust="spacing" textLength="106.2598" x="195.1689" y="237.0338">initializeBlocks()</text><text fill="#111111" font-family="sans-serif" font-size="13" lengthAdjust="spacing" textLength="169.9775" x="163.31" y="252.1666">createBlocklyWorkspace()</text><text fill="#111111" font-family="sans-serif" font-size="13" lengthAdjust="spacing" textLength="136.1445" x="180.2265" y="267.2994">initializeWorkspace()</text></g><!--link Main to Exec--><g class="link" data-entity-1="ent0006" data-entity-2="ent0008" data-link-type="dependency" data-source-line="40" id="lnk15"><path d="M132.46,215.9669 C194.39,215.9669 289.88,215.9669 358.2,215.9669" fill="none" id="Main-to-Exec" style="stroke:#000000;stroke-width:1;"/><polygon fill="#000000" points="364.2,215.9669,355.2,211.9669,359.2,215.9669,355.2,219.9669,364.2,215.9669" style="stroke:#000000;stroke-width:1;"/><text fill="#111111" font-family="sans-serif" font-size="13" lengthAdjust="spacing" textLength="105.1997" x="195.31" y="212.0338">run/stop actions</text></g><!--link Main to I18N--><g class="link" data-entity-1="ent0006" data-entity-2="ent0009" data-link-type="dependency" data-source-line="41" id="lnk16"><path d="M132.55,198.1269 C142.37,195.3869 152.58,192.8469 162.31,190.9669 C250.4,173.8869 273.83,178.6769 363.31,171.9669 C624.34,152.3969 713.31,43.2969 951.9,150.9669 C970.27,159.2569 963.71,176.2869 981.9,184.9669 C1005.69,196.3069 1197.32,179.8369 1218.9,194.9669 C1247.62,215.1069 1223.71,243.5569 1248.9,267.9669 C1260.86,279.5569 1270.5943,285.8811 1286.1643,292.2311" fill="none" id="Main-to-I18N" style="stroke:#000000;stroke-width:1;"/><polygon fill="#000000" points="1291.72,294.4969,1284.897,287.3943,1287.0902,292.6087,1281.8759,294.802,1291.72,294.4969" style="stroke:#000000;stroke-width:1;"/><text fill="#111111" font-family="sans-serif" font-size="13" lengthAdjust="spacing" textLength="170.6694" x="541.1" y="104.0338">setLanguage(), translate()</text></g><!--link BlocklyInit to BlockDefs--><g class="link" data-entity-1="ent0007" data-entity-2="ent0010" data-link-type="dependency" data-source-line="43" id="lnk17"><path d="M469.53,325.2369 C488.67,310.9069 514.27,294.6569 540.1,286.9669 C619.13,263.4369 708.8409,266.3683 771.9109,272.7983" fill="none" id="BlocklyInit-to-BlockDefs" style="stroke:#000000;stroke-width:1;"/><polygon fill="#000000" points="777.88,273.4069,769.3321,268.5147,772.9058,272.8998,768.5207,276.4734,777.88,273.4069" style="stroke:#000000;stroke-width:1;"/><text fill="#111111" font-family="sans-serif" font-size="13" lengthAdjust="spacing" textLength="99.252" x="576.6" y="265.0338">define*Blocks()</text></g><!--link BlocklyInit to Generators--><g class="link" data-entity-1="ent0007" data-entity-2="ent0011" data-link-type="dependency" data-source-line="44" id="lnk18"><path d="M510.33,362.1569 C520.32,363.2769 530.45,364.2569 540.1,364.9669 C610.3,370.0969 683.78,371.509 744.12,371.689" fill="none" id="BlocklyInit-to-Generators" style="stroke:#000000;stroke-width:1;"/><polygon fill="#000000" points="750.12,371.7069,741.132,367.68,745.12,371.692,741.1081,375.68,750.12,371.7069" style="stroke:#000000;stroke-width:1;"/><text fill="#111111" font-family="sans-serif" font-size="13" lengthAdjust="spacing" textLength="123.6079" x="564.6" y="361.0338">defineGenerators()</text></g><!--link BlocklyInit to Blockly--><g class="link" data-entity-1="ent0007" data-entity-2="ent0003" data-link-type="dependency" data-source-line="45" id="lnk19"><path d="M480.72,378.5669 C570.03,432.0469 783.76,551.0569 981.9,592.9669 C1319.35,664.3469 1432.98,688.3169 1757.67,571.9669 C1796.83,557.9369 1829.579,531.2492 1853.089,508.7092" fill="none" id="BlocklyInit-to-Blockly" style="stroke:#000000;stroke-width:1;"/><polygon fill="#000000" points="1857.42,504.5569,1848.1552,507.898,1853.8108,508.0172,1853.6917,513.6728,1857.42,504.5569" style="stroke:#000000;stroke-width:1;"/><text fill="#111111" font-family="sans-serif" font-size="13" lengthAdjust="spacing" textLength="162.9824" x="1019.4" y="589.0338">workspace/toolbox setup</text></g><!--link BlockDefs to I18N--><g class="link" data-entity-1="ent0010" data-entity-2="ent0009" data-link-type="dependency" data-source-line="47" id="lnk20"><path d="M915.95,306.7069 C928.43,312.4469 940.96,319.2069 951.9,326.9669 C968.07,338.4269 963.78,351.9469 981.9,359.9669 C1088.3,407.0369 1220.8338,370.7048 1299.2138,340.8148" fill="none" id="BlockDefs-to-I18N" style="stroke:#000000;stroke-width:1;"/><polygon fill="#000000" points="1304.82,338.6769,1294.9854,338.1463,1300.1482,340.4585,1297.836,345.6212,1304.82,338.6769" style="stroke:#000000;stroke-width:1;"/><text fill="#111111" font-family="sans-serif" font-size="13" lengthAdjust="spacing" textLength="235.5552" x="982.9" y="356.0338">getOption(), getTooltip(), translate()</text></g><!--link BlockDefs to Blockly--><g class="link" data-entity-1="ent0010" data-entity-2="ent0003" data-link-type="dependency" data-source-line="48" id="lnk21"><path d="M915.95,301.1969 C929.38,307.4869 942.28,315.8569 951.9,326.9669 C986.2,366.5669 941.07,408.1369 981.9,440.9669 C1107.64,542.0769 1609.0575,504.9205 1801.9875,486.3905" fill="none" id="BlockDefs-to-Blockly" style="stroke:#000000;stroke-width:1;"/><polygon fill="#000000" points="1807.96,485.8169,1798.6188,482.6956,1802.9829,486.2949,1799.3836,490.659,1807.96,485.8169" style="stroke:#000000;stroke-width:1;"/><text fill="#111111" font-family="sans-serif" font-size="13" lengthAdjust="spacing" textLength="164.6265" x="1285.29" y="501.0338">Blockly.Blocks definitions</text></g><!--link Generators to Blockly--><g class="link" data-entity-1="ent0011" data-entity-2="ent0003" data-link-type="dependency" data-source-line="50" id="lnk22"><path d="M866.49,397.7069 C889.57,428.7569 932.14,478.7769 981.9,502.9669 C1260.39,638.3369 1640.9132,551.1879 1801.9732,503.8779" fill="none" id="Generators-to-Blockly" style="stroke:#000000;stroke-width:1;"/><polygon fill="#000000" points="1807.73,502.1869,1797.9675,500.8855,1802.9327,503.596,1800.2222,508.5612,1807.73,502.1869" style="stroke:#000000;stroke-width:1;"/><text fill="#111111" font-family="sans-serif" font-size="13" lengthAdjust="spacing" textLength="203.29" x="1265.79" y="561.0338">javascriptGenerator.forBlock[*]</text></g><!--link Exec to Generators--><g class="link" data-entity-1="ent0008" data-entity-2="ent0011" data-link-type="dependency" data-source-line="51" id="lnk23"><path d="M458.31,242.3469 C477.15,264.5269 507.06,295.2369 540.1,311.9669 C609.48,347.0769 635.77,329.1669 712.1,343.9669 C724.44,346.3569 731.5255,347.7455 744.3355,350.2955" fill="none" id="Exec-to-Generators" style="stroke:#000000;stroke-width:1;"/><polygon fill="#000000" points="750.22,351.4669,742.1741,345.7868,745.3162,350.4907,740.6123,353.6328,750.22,351.4669" style="stroke:#000000;stroke-width:1;"/><text fill="#111111" font-family="sans-serif" font-size="13" lengthAdjust="spacing" textLength="128.9146" x="562.1" y="308.0338">workspaceToCode()</text></g><!--link Exec to FlockCore--><g class="link" data-entity-1="ent0008" data-entity-2="ent0012" data-link-type="dependency" data-source-line="52" id="lnk24"><path d="M509.29,212.2869 C573.67,208.9769 663.0479,204.3746 735.8679,200.6346" fill="none" id="Exec-to-FlockCore" style="stroke:#000000;stroke-width:1;"/><polygon fill="#000000" points="741.86,200.3269,732.6667,196.7938,736.8666,200.5833,733.077,204.7832,741.86,200.3269" style="stroke:#000000;stroke-width:1;"/><text fill="#111111" font-family="sans-serif" font-size="13" lengthAdjust="spacing" textLength="131.5488" x="560.6" y="199.0338">flock.runCode(code)</text></g><!--link FlockCore to ApiModules--><g class="link" data-entity-1="ent0012" data-entity-2="ent0013" data-link-type="dependency" data-source-line="54" id="lnk25"><path d="M952.15,188.9869 C962.2,188.5769 972.25,188.2169 981.9,187.9669 C1087.2,185.2169 1114.03,178.0969 1218.9,187.9669 C1228.63,188.8769 1232.7232,189.2585 1242.7732,190.7285" fill="none" id="FlockCore-to-ApiModules" style="stroke:#000000;stroke-width:1;"/><polygon fill="#000000" points="1248.71,191.5969,1240.3837,186.3364,1243.7626,190.8732,1239.2258,194.2522,1248.71,191.5969" style="stroke:#000000;stroke-width:1;"/><text fill="#111111" font-family="sans-serif" font-size="13" lengthAdjust="spacing" textLength="198.4658" x="1001.4745" y="164.0338">composes &amp; exposes methods</text><text fill="#111111" font-family="sans-serif" font-size="13" lengthAdjust="spacing" textLength="212.6147" x="994.4" y="179.1666">(...flockScene, ...flockShapes, ...)</text></g><!--link FlockCore to ApiModules--><g class="link" data-entity-1="ent0012" data-entity-2="ent0013" data-link-type="dependency" data-source-line="55" id="lnk26"><path d="M944.76,221.7269 C957.17,224.2969 969.78,226.4969 981.9,227.9669 C1070.88,238.7669 1166.269,235.4135 1242.559,229.3335" fill="none" id="FlockCore-to-ApiModules-1" style="stroke:#000000;stroke-width:1;"/><polygon fill="#000000" points="1248.54,228.8569,1239.2507,225.5845,1243.5558,229.2541,1239.8862,233.5592,1248.54,228.8569" style="stroke:#000000;stroke-width:1;"/><text fill="#111111" font-family="sans-serif" font-size="13" lengthAdjust="spacing" textLength="168.6509" x="1016.4" y="209.0338">initialize() sets references</text><text fill="#111111" font-family="sans-serif" font-size="13" lengthAdjust="spacing" textLength="160.8813" x="1020.2848" y="224.1666">setFlockReference(flock)</text></g><!--link ApiModules to Babylon--><g class="link" data-entity-1="ent0013" data-entity-2="ent0004" data-link-type="dependency" data-source-line="56" id="lnk27"><path d="M1471.5,250.8669 C1569.5,283.9969 1709.0362,331.1748 1798.1662,361.3148" fill="none" id="ApiModules-to-Babylon" style="stroke:#000000;stroke-width:1;"/><polygon fill="#000000" points="1803.85,363.2369,1796.6056,356.5646,1799.1135,361.6352,1794.0429,364.143,1803.85,363.2369" style="stroke:#000000;stroke-width:1;"/><text fill="#111111" font-family="sans-serif" font-size="13" lengthAdjust="spacing" textLength="238.3735" x="1518.67" y="264.0338">scene, mesh, physics, XR operations</text></g><!--link FlockCore to Babylon--><g class="link" data-entity-1="ent0012" data-entity-2="ent0004" data-link-type="dependency" data-source-line="57" id="lnk28"><path d="M932.56,221.7569 C939.83,226.5869 946.47,232.2769 951.9,238.9669 C995.34,292.3969 928.71,347.2469 981.9,390.9669 C997.33,403.6469 1555.6908,395.5579 1783.2308,391.7279" fill="none" id="FlockCore-to-Babylon" style="stroke:#000000;stroke-width:1;"/><polygon fill="#000000" points="1789.23,391.6269,1780.164,387.7789,1784.2307,391.711,1780.2986,395.7778,1789.23,391.6269" style="stroke:#000000;stroke-width:1;"/><text fill="#111111" font-family="sans-serif" font-size="13" lengthAdjust="spacing" textLength="180.832" x="1277.29" y="392.0338">engine/scene/camera setup</text></g><!--link I18N to Blockly--><g class="link" data-entity-1="ent0009" data-entity-2="ent0003" data-link-type="dependency" data-source-line="59" id="lnk29"><path d="M1442.84,336.0169 C1540.34,367.4669 1704.4697,420.405 1802.1897,451.925" fill="none" id="I18N-to-Blockly" style="stroke:#000000;stroke-width:1;"/><polygon fill="#000000" points="1807.9,453.7669,1800.5625,447.1972,1803.1414,452.232,1798.1066,454.8109,1807.9,453.7669" style="stroke:#000000;stroke-width:1;"/><text fill="#111111" font-family="sans-serif" font-size="13" lengthAdjust="spacing" textLength="133.5483" x="1571.245" y="343.0338">updates Blockly.Msg</text><text fill="#111111" font-family="sans-serif" font-size="13" lengthAdjust="spacing" textLength="169.6982" x="1553.17" y="358.1666">localized UI/toolbox labels</text></g><!--link FlockCore to I18N--><g class="link" data-entity-1="ent0012" data-entity-2="ent0009" data-link-type="dependency" data-source-line="60" id="lnk30"><path d="M923.3,221.7369 C933.34,226.7469 943.17,232.4869 951.9,238.9669 C968.63,251.3769 963.49,265.2369 981.9,274.9669 C1079.56,326.5569 1204.7374,327.5236 1285.8274,321.3336" fill="none" id="FlockCore-to-I18N" style="stroke:#000000;stroke-width:1;"/><polygon fill="#000000" points="1291.81,320.8769,1282.5317,317.5735,1286.8245,321.2574,1283.1406,325.5503,1291.81,320.8769" style="stroke:#000000;stroke-width:1;"/><text fill="#111111" font-family="sans-serif" font-size="13" lengthAdjust="spacing" textLength="197.4946" x="1001.9" y="256.0338">runtime user-facing messages</text><text fill="#111111" font-family="sans-serif" font-size="13" lengthAdjust="spacing" textLength="123.5571" x="1038.8688" y="271.1666">(e.g., translate(...))</text></g><?plantuml-src VLNVRzis47xNNt7eWCtE4cb-6D3cOLZYDcs0PYsQ31iGzu6MJZ9ZcYH8gdOsz7_l7VMBJhRgmIPFtns_k_kE2Z8eX2jboYty_GakNBcH0SlGEeJPEzbiO6bqSCA7UPOfh0C40uxi0Ihf22YDplnMQYkSs45fTjPerE4sF59S1WZTA4mWVYCgivUwWLeeZrds4xnLPYqK13o4GZXdzk39dI29MuMrQ5Mu8ZPBeuo37nRnII0NxDg__2K-7FoZABUYGL_iJDKgzETWMsU9d6a3dO6dGEbfJo68DjHIgIHaxtnfN8Mk3_thOl7wrU8vAA7sVv1B-ckSQNNL0PEJcUfog1wHz4R9Qg2wbs43U-vCB58IU7Hv6levXmdwtMn6M9BFLNoop7Pfm8itXu1EKyzUeqLTeIub-XVmRmPmVybYKeyhFLjtA_WPh6eRgVtyCmWFFI1YnVfH6Pq_U8B_lkvs3xuu8PztuelPzXxTY-nhGc7IhBNzoJT2Qjwkz8vM1VzGv1Y1NoNau5hBqCDwbf8i0xf7COYTtXomR5dflGSE-m7F00RUSJ-LIA1XiWpWwyNBFxAH2rMmvgC9G3M8N2Zz8oA4y8nVcWhXBMfq8XX7w6PS5zDoS9s0yR2kN4j3S_rX_K1pkT8rcmWECpnOum9Dh_Oq0cpkwXwTs6UASF7n6cwwILffOMNaIitp9V8iqNHRzATmSATWDuzUbhJ9yxoBTs5bxykjZEqwE_ijBJUSGwo6KF8VZ7O_cwzqwL04x75_6RUbgIcHtqpen3o5vivGJDVgmWTZGSGRoqy0xWO1F8RtT5Er9AtPlByIg6qSAqlfZNIvAUHNSVVmP63w33jrOGHFfl_03_eyX_sGJX6CKMjpO8wjxUd4unF-3OOFbbDZzhIv8vyWxTDSZdsdm_fLtkNH4UqqcML92iTE3-AByAMJDeoGl3Ok0kvFFcUnzi-ACEPrPrZGH6h4ZN8ZM2TEwbi4bVH3dPW039_KHFZuvV6q_15OpRpQOTYOYiL90epnRZkHZjjUhApFxyMUD3QRSnSyVTXgf5kxv24WG_JzDDXctGHbIOnOkEuIOx5rD7ReDycKq5LcBDSfblsOpkIBcYvIB6A8eXGxSXY44QLmtABMLjJuyKBBRtopqhIEoLJmv_KeBYNMg9uUsukBkX3a3g7rwCvgKVB7cyXx_gnITJ5lybHcNCxvDm00?></g></svg>